<svg xmlns="http://www.w3.org/2000/svg" viewBox="0 0 520.47 570.8"><title>Asset 5</title><path d="M355.19,240.25a163.56,163.56,0,0,0-95,30.07,164.35,164.35,0,0,0-65.16-27.38l64.58-42.28a10.14,10.14,0,0,0,3.95-12L244.39,137a10.13,10.13,0,0,0-9.5-6.6H96.41a10.13,10.13,0,0,0-9.5,6.6l-19.2,51.6a10.14,10.14,0,0,0,3.95,12l64.42,42.17C58.82,256.66,0,324.35,0,405.52,0,496.65,74.14,570.8,165.27,570.8a163.74,163.74,0,0,0,95-30.06,164.3,164.3,0,0,0,94.9,30.06c91.13,0,165.27-74.14,165.27-165.28S446.32,240.25,355.19,240.25ZM20.26,405.52c0-80,65.05-145,145-145s145,65,145,145a144.27,144.27,0,0,1-20.23,73.89A99.53,99.53,0,0,1,271.87,458a118.8,118.8,0,1,0-46.31,49.89,166.48,166.48,0,0,0,18.18,19.51,143.61,143.61,0,0,1-78.47,23.09C85.31,550.53,20.26,485.48,20.26,405.52Zm145,98.57a98.57,98.57,0,1,1,48.6-184.28,165.14,165.14,0,0,0,.06,171.43A98,98,0,0,1,165.27,504.09Zm95-125a98.32,98.32,0,0,1,0,52.83,98.54,98.54,0,0,1,0-52.83Zm46.29-59.29a98.59,98.59,0,1,1,.06,171.42,165.11,165.11,0,0,0-.06-171.42ZM216.7,182H114.76l51.1-29.74Zm11.15-31.33,6.84,18.38-31.43-18.38Zm-124.41,0h24.87L96.57,169.18Zm7.73,51.6H220.12L165.65,238Zm244,348.22c-80,0-145-65.05-145-145a144,144,0,0,1,20.24-73.88A99.51,99.51,0,0,1,248.59,353a118.78,118.78,0,1,0,46.3-49.88,166.87,166.87,0,0,0-18.17-19.49,143.37,143.37,0,0,1,78.47-23.1c80,0,145,65,145,145S435.15,550.53,355.19,550.53Z" style="fill:#fff"/><path d="M165.65,66.59a10.13,10.13,0,0,0,10.13-10.13V10.13a10.13,10.13,0,1,0-20.26,0V56.46A10.13,10.13,0,0,0,165.65,66.59Z" style="fill:#fff"/><path d="M53.15,108.92A10.13,10.13,0,0,0,67.47,94.59L34.72,61.84A10.13,10.13,0,1,0,20.39,76.16Z" style="fill:#fff"/><path d="M271,111.89a10.1,10.1,0,0,0,7.16-3l32.76-32.76a10.13,10.13,0,0,0-14.33-14.33L263.82,94.59a10.13,10.13,0,0,0,7.17,17.3Z" style="fill:#fff"/></svg>