<svg xmlns="http://www.w3.org/2000/svg" viewBox="0 0 582.32 575.45"><title>Asset 3</title><path d="M532,55h-15v-13a42.08,42.08,0,0,0-84.17,0V55H333.25v-13a42.09,42.09,0,0,0-84.17,0V55H149.42v-13a42.09,42.09,0,0,0-84.17,0V55h-15A50.33,50.33,0,0,0,0,105.32V525.17a50.33,50.33,0,0,0,50.27,50.28H532a50.33,50.33,0,0,0,50.27-50.28V105.32A50.33,50.33,0,0,0,532,55Zm25.23,135.62H25V105.32A25.26,25.26,0,0,1,50.27,80.09h15v45.26a42.09,42.09,0,0,0,84.17,0V80.09h99.66v45.26a42.09,42.09,0,0,0,84.17,0V80.09h99.66v45.26a42.08,42.08,0,1,0,84.17,0V80.09h15a25.26,25.26,0,0,1,25.23,25.23ZM457.95,42.08a17,17,0,1,1,34.09,0v83.27a17,17,0,1,1-34.09,0Zm-183.83,0a17,17,0,1,1,34.09,0v83.27a17,17,0,1,1-34.09,0Zm-183.83,0a17,17,0,0,1,34.1,0v83.27a17,17,0,0,1-34.1,0Zm467,483.09A25.26,25.26,0,0,1,532,550.41H50.27A25.26,25.26,0,0,1,25,525.17V215.71H557.28Z" style="fill:#fff"/><path d="M74.36,302.59h83.27a12.52,12.52,0,1,0,0-25H74.36a12.52,12.52,0,0,0,0,25Z" style="fill:#fff"/><path d="M74.36,486h83.27a12.52,12.52,0,0,0,0-25H74.36a12.52,12.52,0,0,0,0,25Z" style="fill:#fff"/><path d="M74.36,394.3h83.27a12.52,12.52,0,0,0,0-25H74.36a12.52,12.52,0,0,0,0,25Z" style="fill:#fff"/><path d="M424.7,302.59H508a12.52,12.52,0,0,0,0-25H424.7a12.52,12.52,0,1,0,0,25Z" style="fill:#fff"/><path d="M424.7,486H508a12.52,12.52,0,0,0,0-25H424.7a12.52,12.52,0,0,0,0,25Z" style="fill:#fff"/><path d="M424.7,394.3H508a12.52,12.52,0,0,0,0-25H424.7a12.52,12.52,0,0,0,0,25Z" style="fill:#fff"/><path d="M332.79,461H249.53a12.52,12.52,0,0,0,0,25h83.27a12.52,12.52,0,0,0,0-25Z" style="fill:#fff"/><path d="M285.15,428.4a12.53,12.53,0,0,0,12,0c32.19-17.56,55.37-37.4,68.91-59,15.31-24.42,14.61-44.92,11.33-57.81-6.31-24.77-27.42-42.06-51.33-42.06-12.91,0-25.05,5.22-34.9,14.71-9.85-9.49-22-14.71-34.89-14.71-23.91,0-45,17.29-51.32,42.06-3.29,12.89-4,33.39,11.32,57.81C229.79,391,253,410.84,285.15,428.4Zm-56-110.6c3.43-13.45,14.81-23.21,27.06-23.21,9.41,0,17.77,5.59,24.18,16.17a12.5,12.5,0,0,0,10.7,6h0a12.51,12.51,0,0,0,10.71-6c6.32-10.43,14.92-16.17,24.2-16.17,12.25,0,23.64,9.76,27.07,23.21,2.63,10.32,5.64,46.3-62,85.26C223.56,364.1,226.57,328.12,229.2,317.8Z" style="fill:#fff"/></svg>