<svg xmlns="http://www.w3.org/2000/svg" viewBox="0 0 1018 248.62"><title>divider</title><path d="M622.94,79.66a64.87,64.87,0,0,0-3.2-21.28q-3.2-9.23-8.19-14.66a39.3,39.3,0,0,0-12.13-8.86,53.73,53.73,0,0,0-14-4.61,85.12,85.12,0,0,0-14.59-1.19,42.82,42.82,0,0,0-16.67,3.8,76.09,76.09,0,0,0-16.45,9.53q-7.52,5.73-12.87,10.72a115.19,115.19,0,0,0-8.93,9.15,9.76,9.76,0,0,1-14.59,0,115.19,115.19,0,0,0-8.93-9.15q-5.36-5-12.87-10.72a76.09,76.09,0,0,0-16.45-9.53,42.82,42.82,0,0,0-16.67-3.8,85.12,85.12,0,0,0-14.59,1.19,53.73,53.73,0,0,0-14,4.61,39.3,39.3,0,0,0-12.13,8.86q-5,5.43-8.19,14.66a64.87,64.87,0,0,0-3.2,21.28q0,25,27.83,52.84l86.47,83.35L595,132.64Q622.94,104.66,622.94,79.66Zm19.05,0q0,32.89-34.08,67l-92.73,89.3a9.34,9.34,0,0,1-13.1,0l-92.87-89.6a49.13,49.13,0,0,1-4.09-3.87q-2.6-2.68-8.26-9.75a131.71,131.71,0,0,1-10.12-14.51,90.14,90.14,0,0,1-8-18,65.2,65.2,0,0,1-3.5-20.54q0-32.74,18.9-51.2T446.42,10a59.33,59.33,0,0,1,18.83,3.2,76.2,76.2,0,0,1,17.86,8.63q8.26,5.43,14.21,10.2a137.13,137.13,0,0,1,11.31,10.12A137.13,137.13,0,0,1,519.95,32q6-4.76,14.21-10.2A76.2,76.2,0,0,1,552,13.2,59.33,59.33,0,0,1,570.85,10q33.34,0,52.24,18.46T642,79.66Z" style="fill:#eb5d73;stroke:#eb5d73;stroke-miterlimit:10;stroke-width:20px"/><path d="M995.23,94.39a43.47,43.47,0,0,0-2.14-14.26,27.84,27.84,0,0,0-5.49-9.82,26.33,26.33,0,0,0-8.13-5.93,36,36,0,0,0-9.37-3.09,57,57,0,0,0-9.77-.8A28.69,28.69,0,0,0,949.16,63a51,51,0,0,0-11,6.38q-5,3.84-8.63,7.18a77.18,77.18,0,0,0-6,6.13,6.54,6.54,0,0,1-9.77,0,77.18,77.18,0,0,0-6-6.13q-3.59-3.34-8.63-7.18a51,51,0,0,0-11-6.38A28.69,28.69,0,0,0,877,60.48a57,57,0,0,0-9.77.8,36,36,0,0,0-9.37,3.09,26.33,26.33,0,0,0-8.13,5.93,27.84,27.84,0,0,0-5.49,9.82A43.47,43.47,0,0,0,842,94.39q0,16.75,18.65,35.4l57.94,55.85,57.84-55.75Q995.23,111.14,995.23,94.39Zm12.77,0q0,22-22.84,44.88L923,199.11a6.26,6.26,0,0,1-8.78,0l-62.23-60a32.92,32.92,0,0,1-2.74-2.59q-1.75-1.8-5.54-6.53a88.26,88.26,0,0,1-6.78-9.72,60.4,60.4,0,0,1-5.34-12.07,43.69,43.69,0,0,1-2.34-13.76q0-21.94,12.67-34.31t35-12.37a39.75,39.75,0,0,1,12.62,2.14,51.06,51.06,0,0,1,12,5.78q5.54,3.64,9.52,6.83a91.89,91.89,0,0,1,7.58,6.78,91.89,91.89,0,0,1,7.58-6.78q4-3.19,9.52-6.83a51.06,51.06,0,0,1,12-5.78,39.75,39.75,0,0,1,12.62-2.14q22.34,0,35,12.37T1008,94.39Z" style="fill:#8accea;stroke:#8accea;stroke-miterlimit:10;stroke-width:20px"/><path d="M176,94.08a43.47,43.47,0,0,0-2.14-14.26A27.84,27.84,0,0,0,168.32,70a26.33,26.33,0,0,0-8.13-5.93A36,36,0,0,0,150.82,61a57,57,0,0,0-9.77-.8,28.69,28.69,0,0,0-11.17,2.54,51,51,0,0,0-11,6.38q-5,3.84-8.63,7.18a77.18,77.18,0,0,0-6,6.13,6.54,6.54,0,0,1-9.77,0,77.18,77.18,0,0,0-6-6.13q-3.59-3.34-8.63-7.18a51,51,0,0,0-11-6.38,28.69,28.69,0,0,0-11.17-2.54,57,57,0,0,0-9.77.8,36,36,0,0,0-9.37,3.09A26.33,26.33,0,0,0,30.39,70a27.84,27.84,0,0,0-5.49,9.82,43.47,43.47,0,0,0-2.14,14.26q0,16.75,18.65,35.4l57.94,55.85,57.84-55.75Q176,110.84,176,94.08Zm12.77,0q0,22-22.84,44.88L103.75,198.8a6.26,6.26,0,0,1-8.78,0l-62.23-60A32.92,32.92,0,0,1,30,136.17q-1.75-1.8-5.54-6.53a88.26,88.26,0,0,1-6.78-9.72,60.4,60.4,0,0,1-5.34-12.07A43.69,43.69,0,0,1,10,94.08q0-21.94,12.67-34.31t35-12.37a39.75,39.75,0,0,1,12.62,2.14,51.06,51.06,0,0,1,12,5.78q5.54,3.64,9.52,6.83a91.89,91.89,0,0,1,7.58,6.78,91.89,91.89,0,0,1,7.58-6.78q4-3.19,9.52-6.83a51.06,51.06,0,0,1,12-5.78A39.75,39.75,0,0,1,141,47.41q22.34,0,35,12.37T188.72,94.08Z" style="fill:#8accea;stroke:#8accea;stroke-miterlimit:10;stroke-width:20px"/></svg>