<svg xmlns="http://www.w3.org/2000/svg" viewBox="0 0 3226 122.77"><title>girland</title><path d="M249.32,98.48q-24.2-44.4-48.16-88.78l100.57,2.56Q275.64,55.37,249.32,98.48Z" style="fill:#65beec"/><path d="M47.35,92.38Q23.75,47.73.55,3.1L100.92,6.72Q74.34,49.56,47.35,92.38Z" style="fill:#004b93"/><polygon points="350.45 100.7 301.86 12.26 402.52 14.1 350.45 100.7" style="fill:#eb5d73"/><path d="M350.19,22.84a4.76,4.76,0,0,0-2.51,2.29,4.65,4.65,0,0,0-.44,2.54,4.53,4.53,0,0,0,1.1,2.48A5,5,0,0,0,350,31.4l0,2.11-3.19-.06a2.28,2.28,0,0,0-3.57-.14,2.22,2.22,0,0,0-.55,1.78A2.28,2.28,0,0,0,345.44,37a2.42,2.42,0,0,0,1.48-1l3,.06-.19,9.18a46.79,46.79,0,0,1-.56,6.15,3.83,3.83,0,0,1-1.06,2.13,2.52,2.52,0,0,1-1.77.3,7.21,7.21,0,0,1-3.24-1.17,18.91,18.91,0,0,1-1.62-1.17,17.52,17.52,0,0,1-1.36-1.3l1.87,0a9.32,9.32,0,0,0-2.28-2.82,12.8,12.8,0,0,0-3.59-2,9.35,9.35,0,0,0-.31,1.8,12.58,12.58,0,0,0,.07,2.84,6.06,6.06,0,0,0,1.28,2.88c.32-.54.62-1.1.93-1.65a17.18,17.18,0,0,0,2,3A18,18,0,0,0,341.8,56a13,13,0,0,0,4.61,2.87,10.85,10.85,0,0,1,2.88,1.49A7.27,7.27,0,0,1,351,62.07c.07.14.25.09.38.12a9.36,9.36,0,0,1,4.78-3.12,11.72,11.72,0,0,0,2.68-1.2,17.81,17.81,0,0,0,5.93-6.18l.86,1.68a6.4,6.4,0,0,0,1.55-4,12.18,12.18,0,0,0-.19-3.45l-.06,0a11.64,11.64,0,0,0-4.29,2.41,9.08,9.08,0,0,0-1.73,2.17l1.88,0a14.62,14.62,0,0,1-3.63,2.69A6.93,6.93,0,0,1,356,54a2.24,2.24,0,0,1-1.33-.32,2.66,2.66,0,0,1-.86-1.43,14.48,14.48,0,0,1-.45-3.1c-.14-2.1.1-11.33.13-13l3,.06a3.18,3.18,0,0,0,.53.6A2.28,2.28,0,0,0,360.8,35a2.56,2.56,0,0,0-.11-.56,6.06,6.06,0,0,0-.3-.64s-.32-.37-.41-.45a2.43,2.43,0,0,0-.73-.43,2.18,2.18,0,0,0-.84-.14,2.38,2.38,0,0,0-1.74.86l-3.19-.07c0-.7,0-1.4.06-2.1a5.75,5.75,0,0,0,1.39-.85,4.61,4.61,0,0,0,1.58-3.36,4.43,4.43,0,0,0-.64-2.44,4.62,4.62,0,0,0-2.76-2.1A4.72,4.72,0,0,0,350.19,22.84Zm3.83,3.8a2.16,2.16,0,0,1-.17,1.52,2.25,2.25,0,0,1-1.78,1.2,2.18,2.18,0,0,1-.39-4.34A2.24,2.24,0,0,1,354,26.64Z" style="fill:#fff"/><path d="M148.41,95.91l-12-22.22L124.51,51.37,100.79,6.72l25.09.91,12.55.45c4.18.15,8.38.23,12.57.34L201.28,9.7Q175,52.81,148.41,95.91Z" style="fill:#fff"/><path d="M148.91,18.05a4.77,4.77,0,0,0-2.53,2.27,4.66,4.66,0,0,0-.46,2.53A4.51,4.51,0,0,0,147,25.35a4.93,4.93,0,0,0,1.68,1.27l-.06,2.1-3.19-.08a2.28,2.28,0,0,0-3.56-.17,2.23,2.23,0,0,0-.56,1.78A2.27,2.27,0,0,0,144,32.16a2.43,2.43,0,0,0,1.49-1l3,.08-.28,9.18a46.82,46.82,0,0,1-.62,6.14,3.84,3.84,0,0,1-1.08,2.12,2.52,2.52,0,0,1-1.77.29,7.2,7.2,0,0,1-3.23-1.19,18.85,18.85,0,0,1-1.61-1.18,16.22,16.22,0,0,1-1.35-1.32l1.87.05a9.54,9.54,0,0,0-2.25-2.85,12.92,12.92,0,0,0-3.57-2.05,9.33,9.33,0,0,0-.32,1.79,12.59,12.59,0,0,0,0,2.84,6.11,6.11,0,0,0,1.25,2.9c.33-.54.63-1.09.95-1.64a17.36,17.36,0,0,0,2,3.06,17,17,0,0,0,1.67,1.82,12.93,12.93,0,0,0,4.58,2.91,10.81,10.81,0,0,1,2.86,1.51,7.24,7.24,0,0,1,1.67,1.7c.07.14.25.09.38.13a9.4,9.4,0,0,1,4.81-3.09,11.75,11.75,0,0,0,2.69-1.18,17.86,17.86,0,0,0,6-6.14l.84,1.69a6.41,6.41,0,0,0,1.58-4,12.18,12.18,0,0,0-.16-3.45l-.06,0a11.67,11.67,0,0,0-4.31,2.38,9.11,9.11,0,0,0-1.75,2.15l1.88,0a14.67,14.67,0,0,1-3.66,2.66,6.94,6.94,0,0,1-3.13.76,2.23,2.23,0,0,1-1.32-.33,2.65,2.65,0,0,1-.85-1.44,14.46,14.46,0,0,1-.42-3.11c-.12-2.1.21-11.33.26-13l3,.08a3.17,3.17,0,0,0,.52.6,2.28,2.28,0,0,0,3.8-1.75,2.56,2.56,0,0,0-.1-.56,6.06,6.06,0,0,0-.29-.64s-.32-.37-.41-.45a2.42,2.42,0,0,0-.72-.43A2.17,2.17,0,0,0,157,28a2.38,2.38,0,0,0-1.75.85l-3.19-.09c0-.7,0-1.4.08-2.1a5.76,5.76,0,0,0,1.39-.84,4.62,4.62,0,0,0,1.62-3.35,4.42,4.42,0,0,0-.62-2.45,4.6,4.6,0,0,0-2.74-2.12A4.71,4.71,0,0,0,148.91,18.05Zm3.79,3.83a2.16,2.16,0,0,1-.19,1.52,2.26,2.26,0,0,1-1.79,1.19,2.18,2.18,0,0,1-.34-4.34A2.23,2.23,0,0,1,152.7,21.88Z" style="fill:#004b93"/><path d="M402.5,11,301.84,9.16,201.28,6.6,151,5.32c-4.19-.12-8.38-.19-12.57-.34l-12.54-.45-25.09-.91L.47,0,.34,3,100.7,6.62l25.09.91L138.34,8c4.18.15,8.38.23,12.57.34L201.2,9.6l100.58,2.56L402.45,14Z" style="fill:#c8c8c8"/><polygon points="653.26 105.29 603.89 17.13 704.62 18.36 653.26 105.29" style="fill:#65beec"/><polygon points="451.64 102.53 402.75 14.1 453.08 15.02 478.25 15.47 490.83 15.7 503.42 15.86 477.56 59.23 451.64 102.53" style="fill:#004b93"/><polygon points="754.3 106.31 704.75 18.36 805.49 19.2 754.3 106.31" style="fill:#eb5d73"/><path d="M753.22,28.45a4.75,4.75,0,0,0-2.49,2.32,4.65,4.65,0,0,0-.41,2.54,4.53,4.53,0,0,0,1.12,2.47A5,5,0,0,0,753.16,37l0,2.11-3.2,0a2.37,2.37,0,0,0-1.92-.91,2.35,2.35,0,0,0-1.65.81,2.22,2.22,0,0,0-.53,1.79,2.28,2.28,0,0,0,2.77,1.86,2.42,2.42,0,0,0,1.47-1.05l3,0L753,50.79a46.78,46.78,0,0,1-.49,6.15,3.82,3.82,0,0,1-1,2.14,2.52,2.52,0,0,1-1.77.32,7.22,7.22,0,0,1-3.26-1.13,18.94,18.94,0,0,1-1.63-1.16,17.55,17.55,0,0,1-1.38-1.29h1.87A9.34,9.34,0,0,0,743,53a12.82,12.82,0,0,0-3.62-2,9.34,9.34,0,0,0-.29,1.8,12.58,12.58,0,0,0,.1,2.84,6.07,6.07,0,0,0,1.31,2.86c.32-.55.61-1.11.91-1.66a17.21,17.21,0,0,0,2,3,18,18,0,0,0,1.7,1.78,13,13,0,0,0,4.64,2.83A10.86,10.86,0,0,1,752.72,66a7.28,7.28,0,0,1,1.7,1.68c.07.14.25.09.38.12a9.35,9.35,0,0,1,4.75-3.17,11.71,11.71,0,0,0,2.66-1.23,17.79,17.79,0,0,0,5.86-6.24l.87,1.67a6.39,6.39,0,0,0,1.51-4,12.18,12.18,0,0,0-.23-3.44l-.06,0a11.63,11.63,0,0,0-4.27,2.45A9.07,9.07,0,0,0,764.2,56h1.88a14.61,14.61,0,0,1-3.61,2.73,6.93,6.93,0,0,1-3.12.81,2.24,2.24,0,0,1-1.33-.3,2.66,2.66,0,0,1-.88-1.43,14.48,14.48,0,0,1-.49-3.1c-.16-2.1,0-11.33,0-13l3,0a3.18,3.18,0,0,0,.53.59A2.28,2.28,0,0,0,764,40.49a2.57,2.57,0,0,0-.11-.56,6.07,6.07,0,0,0-.3-.64s-.32-.37-.42-.45a2.43,2.43,0,0,0-.73-.42,2.18,2.18,0,0,0-.84-.13,2.37,2.37,0,0,0-1.73.88l-3.19,0c0-.7,0-1.4,0-2.1a5.74,5.74,0,0,0,1.38-.87,4.6,4.6,0,0,0,1.55-3.38,4.43,4.43,0,0,0-.67-2.44,4.62,4.62,0,0,0-2.78-2.08A4.72,4.72,0,0,0,753.22,28.45Zm3.87,3.76a2.15,2.15,0,0,1-.16,1.52A2.25,2.25,0,0,1,755.18,35a2.18,2.18,0,0,1-.43-4.34A2.24,2.24,0,0,1,757.1,32.21Z" style="fill:#fff"/><polygon points="552.46 104.02 503.3 15.85 604.01 17.13 552.46 104.02" style="fill:#fff"/><path d="M551.72,26.15a4.75,4.75,0,0,0-2.5,2.31A4.65,4.65,0,0,0,548.8,31a4.53,4.53,0,0,0,1.11,2.47,5,5,0,0,0,1.7,1.25l0,2.11-3.2,0a2.28,2.28,0,0,0-3.57-.12,2.22,2.22,0,0,0-.54,1.79,2.28,2.28,0,0,0,2.76,1.88,2.42,2.42,0,0,0,1.48-1l3,0-.13,9.18a46.77,46.77,0,0,1-.52,6.15,3.82,3.82,0,0,1-1,2.14,2.52,2.52,0,0,1-1.77.31,7.22,7.22,0,0,1-3.25-1.15,18.93,18.93,0,0,1-1.63-1.16,17.55,17.55,0,0,1-1.37-1.3l1.87,0a9.33,9.33,0,0,0-2.3-2.81,12.81,12.81,0,0,0-3.61-2,9.35,9.35,0,0,0-.29,1.8,12.58,12.58,0,0,0,.08,2.84,6.06,6.06,0,0,0,1.3,2.87c.32-.54.61-1.1.92-1.66a17.2,17.2,0,0,0,2,3,18,18,0,0,0,1.69,1.79,13,13,0,0,0,4.63,2.85A10.86,10.86,0,0,1,551,63.69a7.27,7.27,0,0,1,1.69,1.68c.07.14.25.09.38.12a9.36,9.36,0,0,1,4.76-3.15,11.71,11.71,0,0,0,2.67-1.22,17.79,17.79,0,0,0,5.89-6.21l.87,1.68a6.4,6.4,0,0,0,1.52-4,12.18,12.18,0,0,0-.21-3.44l-.06,0a11.63,11.63,0,0,0-4.28,2.43,9.07,9.07,0,0,0-1.71,2.18l1.88,0a14.61,14.61,0,0,1-3.62,2.71,6.93,6.93,0,0,1-3.12.8,2.24,2.24,0,0,1-1.33-.31,2.66,2.66,0,0,1-.87-1.43,14.48,14.48,0,0,1-.47-3.1c-.15-2.1,0-11.33,0-13l3,0a3.18,3.18,0,0,0,.53.59,2.28,2.28,0,0,0,3.78-1.8,2.56,2.56,0,0,0-.11-.56A6.05,6.05,0,0,0,562,37s-.32-.37-.41-.45a2.43,2.43,0,0,0-.73-.42A2.18,2.18,0,0,0,560,36a2.37,2.37,0,0,0-1.73.87l-3.19,0c0-.7,0-1.4,0-2.1a5.74,5.74,0,0,0,1.38-.86,4.6,4.6,0,0,0,1.56-3.37,4.43,4.43,0,0,0-.66-2.44A4.62,4.62,0,0,0,554.65,26,4.72,4.72,0,0,0,551.72,26.15Zm3.86,3.78a2.15,2.15,0,0,1-.16,1.52,2.25,2.25,0,0,1-1.77,1.21,2.18,2.18,0,0,1-.41-4.34A2.24,2.24,0,0,1,555.57,29.93Z" style="fill:#004b93"/><polygon points="805.45 16.11 704.69 15.26 603.97 14.03 503.25 12.75 490.66 12.6 478.08 12.37 452.91 11.91 402.58 11 402.52 14 452.86 14.91 478.03 15.37 490.61 15.6 503.2 15.76 603.93 17.03 704.66 18.26 805.42 19.11 805.45 16.11" style="fill:#c8c8c8"/><polygon points="1056.97 108.35 1006.99 20.57 1107.75 21.07 1056.97 108.35" style="fill:#65beec"/><polygon points="855.43 107.16 805.72 19.21 906.47 20.05 855.43 107.16" style="fill:#004b93"/><path d="M1158,108.79l-50.11-87.72c33.59.21,67.18.2,100.77.29Z" style="fill:#eb5d73"/><path d="M1156.43,30.93a4.76,4.76,0,0,0-2.47,2.33,4.65,4.65,0,0,0-.4,2.54,4.53,4.53,0,0,0,1.14,2.46,5,5,0,0,0,1.72,1.23v2.11h-3.2a2.28,2.28,0,0,0-3.57-.09,2.22,2.22,0,0,0-.52,1.79,2.28,2.28,0,0,0,2.78,1.85,2.42,2.42,0,0,0,1.46-1.06h3l0,9.18a46.78,46.78,0,0,1-.45,6.15,3.82,3.82,0,0,1-1,2.15,2.52,2.52,0,0,1-1.76.33,7.22,7.22,0,0,1-3.26-1.11,18.94,18.94,0,0,1-1.64-1.15,17.54,17.54,0,0,1-1.38-1.28h1.87a9.33,9.33,0,0,0-2.33-2.79,12.82,12.82,0,0,0-3.63-1.93,9.34,9.34,0,0,0-.28,1.8,12.58,12.58,0,0,0,.11,2.84,6.06,6.06,0,0,0,1.33,2.86c.32-.55.6-1.11.9-1.67a17.21,17.21,0,0,0,2.05,3,18,18,0,0,0,1.71,1.77,13,13,0,0,0,4.66,2.8,10.85,10.85,0,0,1,2.9,1.44,7.27,7.27,0,0,1,1.71,1.67c.07.14.25.08.38.12a9.36,9.36,0,0,1,4.73-3.2,11.72,11.72,0,0,0,2.66-1.25,17.8,17.8,0,0,0,5.82-6.28l.88,1.67a6.4,6.4,0,0,0,1.48-4,12.18,12.18,0,0,0-.25-3.44l-.06,0a11.63,11.63,0,0,0-4.25,2.48,9.08,9.08,0,0,0-1.69,2.19h1.88a14.62,14.62,0,0,1-3.59,2.75,6.93,6.93,0,0,1-3.11.83,2.24,2.24,0,0,1-1.33-.3,2.66,2.66,0,0,1-.89-1.42,14.48,14.48,0,0,1-.51-3.1c-.17-2.1-.09-11.33-.09-13h3a3.18,3.18,0,0,0,.54.59,2.28,2.28,0,0,0,3.76-1.84,2.56,2.56,0,0,0-.12-.56,6.06,6.06,0,0,0-.31-.64s-.33-.37-.42-.44a2.43,2.43,0,0,0-.74-.42,2.18,2.18,0,0,0-.84-.12,2.38,2.38,0,0,0-1.72.89h-3.19c0-.7,0-1.4,0-2.1a5.74,5.74,0,0,0,1.37-.88,4.6,4.6,0,0,0,1.53-3.39,4.42,4.42,0,0,0-.68-2.43,4.62,4.62,0,0,0-2.8-2.06A4.72,4.72,0,0,0,1156.43,30.93Zm3.9,3.74a2.15,2.15,0,0,1-.15,1.53,2.25,2.25,0,0,1-1.76,1.23,2.18,2.18,0,0,1-.46-4.33A2.24,2.24,0,0,1,1160.33,34.67Z" style="fill:#fff"/><polygon points="956.21 107.85 906.34 20.05 1007.11 20.57 956.21 107.85" style="fill:#fff"/><path d="M954.86,30a4.75,4.75,0,0,0-2.48,2.33,4.65,4.65,0,0,0-.4,2.54,4.53,4.53,0,0,0,1.13,2.47,5,5,0,0,0,1.71,1.23v2.11l-3.2,0a2.28,2.28,0,0,0-3.57-.1,2.22,2.22,0,0,0-.52,1.79,2.28,2.28,0,0,0,2.78,1.85,2.42,2.42,0,0,0,1.47-1.06l3,0-.06,9.18a46.78,46.78,0,0,1-.47,6.15,3.82,3.82,0,0,1-1,2.14,2.52,2.52,0,0,1-1.77.32,7.22,7.22,0,0,1-3.26-1.12,19,19,0,0,1-1.64-1.15,17.55,17.55,0,0,1-1.38-1.29h1.87a9.34,9.34,0,0,0-2.32-2.79,12.82,12.82,0,0,0-3.62-1.94,9.34,9.34,0,0,0-.28,1.8,12.58,12.58,0,0,0,.11,2.84,6.07,6.07,0,0,0,1.32,2.86c.32-.55.6-1.11.91-1.66a17.21,17.21,0,0,0,2,3,18,18,0,0,0,1.71,1.77,13,13,0,0,0,4.65,2.81,10.85,10.85,0,0,1,2.9,1.45,7.27,7.27,0,0,1,1.71,1.67c.07.14.25.08.38.12a9.35,9.35,0,0,1,4.74-3.19A11.71,11.71,0,0,0,964,64.9a17.8,17.8,0,0,0,5.84-6.26l.88,1.67a6.4,6.4,0,0,0,1.49-4,12.18,12.18,0,0,0-.24-3.44l-.06,0a11.63,11.63,0,0,0-4.26,2.47,9.07,9.07,0,0,0-1.7,2.19h1.88a14.61,14.61,0,0,1-3.6,2.74,6.93,6.93,0,0,1-3.12.83,2.24,2.24,0,0,1-1.33-.3,2.66,2.66,0,0,1-.88-1.42,14.48,14.48,0,0,1-.5-3.1c-.17-2.1-.06-11.33-.05-13l3,0a3.18,3.18,0,0,0,.53.59A2.28,2.28,0,0,0,965.65,42a2.56,2.56,0,0,0-.11-.56,6.06,6.06,0,0,0-.31-.64s-.32-.37-.42-.44a2.43,2.43,0,0,0-.73-.42,2.18,2.18,0,0,0-.84-.13,2.37,2.37,0,0,0-1.73.89l-3.19,0c0-.7,0-1.4,0-2.1a5.74,5.74,0,0,0,1.37-.87,4.6,4.6,0,0,0,1.54-3.38,4.43,4.43,0,0,0-.67-2.44,4.62,4.62,0,0,0-2.79-2.07A4.72,4.72,0,0,0,954.86,30Zm3.89,3.75a2.15,2.15,0,0,1-.15,1.52,2.25,2.25,0,0,1-1.76,1.22,2.18,2.18,0,0,1-.45-4.33A2.24,2.24,0,0,1,958.75,33.74Z" style="fill:#004b93"/><path d="M1208.59,18.26c-67.19-.05-134.37-.47-201.55-.79L906.27,17l-100.75-.85,0,3L906.25,20l100.77.51c67.18.32,134.36.74,201.56.79Z" style="fill:#c8c8c8"/><polygon points="1460.6 109.17 1410.19 21.67 1510.97 21.61 1460.6 109.17" style="fill:#65beec"/><polygon points="1259.09 108.99 1208.88 21.36 1309.66 21.56 1259.09 108.99" style="fill:#004b93"/><polygon points="1561.61 109.12 1511.1 21.61 1611.89 21.55 1561.61 109.12" style="fill:#eb5d73"/><path d="M1559.7,31.27a4.74,4.74,0,0,0-2.46,2.34,4.65,4.65,0,0,0-.38,2.54,4.54,4.54,0,0,0,1.15,2.46,5,5,0,0,0,1.72,1.22v2.11h-3.2a2.38,2.38,0,0,0-1.93-.9,2.35,2.35,0,0,0-1.64.82,2.22,2.22,0,0,0-.51,1.79,2.29,2.29,0,0,0,2.79,1.84,2.42,2.42,0,0,0,1.46-1.07h3c0,1.77,0,9.18,0,9.18a46.76,46.76,0,0,1-.43,6.16,3.82,3.82,0,0,1-1,2.15,2.51,2.51,0,0,1-1.76.33,7.23,7.23,0,0,1-3.27-1.1,19,19,0,0,1-1.64-1.14,17.6,17.6,0,0,1-1.39-1.28h1.87a9.36,9.36,0,0,0-2.34-2.78,12.85,12.85,0,0,0-3.64-1.92,9.34,9.34,0,0,0-.27,1.8,12.58,12.58,0,0,0,.13,2.84,6.08,6.08,0,0,0,1.34,2.85c.31-.55.6-1.11.89-1.67a17.25,17.25,0,0,0,2.06,3A18.06,18.06,0,0,0,1552,64.6a13,13,0,0,0,4.67,2.79,10.88,10.88,0,0,1,2.91,1.43,7.29,7.29,0,0,1,1.72,1.66c.07.14.25.08.38.12a9.33,9.33,0,0,1,4.72-3.21,11.69,11.69,0,0,0,2.65-1.25,17.75,17.75,0,0,0,5.8-6.29l.89,1.67a6.39,6.39,0,0,0,1.46-4,12.19,12.19,0,0,0-.26-3.44l-.06,0a11.61,11.61,0,0,0-4.24,2.49,9.05,9.05,0,0,0-1.68,2.2h1.88a14.58,14.58,0,0,1-3.58,2.76,6.92,6.92,0,0,1-3.11.84,2.24,2.24,0,0,1-1.33-.29,2.67,2.67,0,0,1-.89-1.42,14.5,14.5,0,0,1-.52-3.1c-.18-2.1-.14-11.33-.14-13h3a3.19,3.19,0,0,0,.54.59,2.28,2.28,0,0,0,3.75-1.85,2.57,2.57,0,0,0-.12-.56,6.07,6.07,0,0,0-.31-.64s-.33-.37-.42-.44a2.44,2.44,0,0,0-.74-.41,2.18,2.18,0,0,0-.84-.12,2.37,2.37,0,0,0-1.72.9h-3.19c0-.7,0-1.4,0-2.1a5.73,5.73,0,0,0,1.37-.88,4.59,4.59,0,0,0,1.51-3.39,4.43,4.43,0,0,0-.69-2.43,4.63,4.63,0,0,0-2.8-2.05A4.72,4.72,0,0,0,1559.7,31.27Zm3.91,3.73a2.15,2.15,0,0,1-.14,1.53,2.25,2.25,0,0,1-1.75,1.23,2.18,2.18,0,0,1-.48-4.33A2.25,2.25,0,0,1,1563.62,35Z" style="fill:#fff"/><polygon points="1359.85 109.2 1309.54 21.56 1410.31 21.67 1359.85 109.2" style="fill:#fff"/><path d="M1358.11,31.34a4.74,4.74,0,0,0-2.47,2.33,4.64,4.64,0,0,0-.39,2.54,4.54,4.54,0,0,0,1.14,2.46,5,5,0,0,0,1.72,1.23V42h-3.2a2.38,2.38,0,0,0-1.92-.9,2.34,2.34,0,0,0-1.65.82,2.21,2.21,0,0,0-.51,1.79,2.29,2.29,0,0,0,2.79,1.85,2.41,2.41,0,0,0,1.46-1.06h3v9.18a46.76,46.76,0,0,1-.44,6.15,3.81,3.81,0,0,1-1,2.15,2.51,2.51,0,0,1-1.76.33,7.23,7.23,0,0,1-3.27-1.11,19,19,0,0,1-1.64-1.15,17.61,17.61,0,0,1-1.39-1.28h1.87a9.37,9.37,0,0,0-2.33-2.79,12.85,12.85,0,0,0-3.63-1.93,9.33,9.33,0,0,0-.27,1.8,12.58,12.58,0,0,0,.12,2.84,6.08,6.08,0,0,0,1.33,2.86c.31-.55.6-1.11.9-1.67a17.26,17.26,0,0,0,2.06,3,18.07,18.07,0,0,0,1.72,1.77,13,13,0,0,0,4.67,2.8,10.88,10.88,0,0,1,2.9,1.44,7.3,7.3,0,0,1,1.72,1.67c.07.14.25.08.38.12a9.33,9.33,0,0,1,4.72-3.2,11.69,11.69,0,0,0,2.65-1.25,17.71,17.71,0,0,0,5.81-6.28l.89,1.67a6.4,6.4,0,0,0,1.47-4,12.18,12.18,0,0,0-.26-3.44l-.06,0a11.69,11.69,0,0,0-4.25,2.49,9,9,0,0,0-1.68,2.19h1.88a14.57,14.57,0,0,1-3.58,2.75,6.92,6.92,0,0,1-3.11.83,2.24,2.24,0,0,1-1.33-.3,2.67,2.67,0,0,1-.89-1.42,14.5,14.5,0,0,1-.51-3.1c-.18-2.1-.12-11.33-.12-13h3a3.19,3.19,0,0,0,.54.59,2.28,2.28,0,0,0,3.75-1.84,2.57,2.57,0,0,0-.12-.56,6.08,6.08,0,0,0-.31-.64s-.33-.37-.42-.44a2.44,2.44,0,0,0-.74-.42,2.18,2.18,0,0,0-.84-.12,2.37,2.37,0,0,0-1.72.89h-3.19c0-.7,0-1.4,0-2.1A5.73,5.73,0,0,0,1363,39a4.59,4.59,0,0,0,1.52-3.39,4.43,4.43,0,0,0-.69-2.43,4.64,4.64,0,0,0-2.8-2.06A4.72,4.72,0,0,0,1358.11,31.34Zm3.91,3.74a2.15,2.15,0,0,1-.14,1.53,2.25,2.25,0,0,1-1.75,1.23,2.18,2.18,0,0,1-.47-4.33A2.25,2.25,0,0,1,1362,35.08Z" style="fill:#004b93"/><polygon points="1611.81 18.45 1410.23 18.57 1309.45 18.46 1208.66 18.26 1208.66 21.26 1309.44 21.47 1410.23 21.57 1611.81 21.45 1611.81 18.45" style="fill:#c8c8c8"/><polygon points="1864.2 108.31 1813.44 20.96 1914.22 20.52 1864.2 108.31" style="fill:#65beec"/><polygon points="1662.7 108.94 1612.11 21.55 1712.9 21.26 1662.7 108.94" style="fill:#004b93"/><polygon points="1965.2 107.79 1914.35 20.52 2015.14 20 1965.2 107.79" style="fill:#eb5d73"/><path d="M1963,29.95a4.75,4.75,0,0,0-2.45,2.35,4.65,4.65,0,0,0-.37,2.55,4.53,4.53,0,0,0,1.16,2.45,5,5,0,0,0,1.73,1.22v2.11l-3.2,0a2.38,2.38,0,0,0-1.93-.89,2.35,2.35,0,0,0-1.64.83,2.22,2.22,0,0,0-.5,1.79,2.29,2.29,0,0,0,2.8,1.83,2.42,2.42,0,0,0,1.46-1.07h3l0,9.18a46.77,46.77,0,0,1-.4,6.16,3.82,3.82,0,0,1-1,2.15,2.52,2.52,0,0,1-1.76.34,7.23,7.23,0,0,1-3.27-1.09,19,19,0,0,1-1.65-1.13,17.58,17.58,0,0,1-1.39-1.27h1.87a9.35,9.35,0,0,0-2.35-2.77,12.84,12.84,0,0,0-3.64-1.9,9.34,9.34,0,0,0-.26,1.8,12.58,12.58,0,0,0,.14,2.84,6.07,6.07,0,0,0,1.35,2.85c.31-.55.59-1.12.89-1.67a17.24,17.24,0,0,0,2.08,3,18,18,0,0,0,1.73,1.76,13,13,0,0,0,4.68,2.77A10.87,10.87,0,0,1,1963,67.5a7.28,7.28,0,0,1,1.73,1.65c.07.14.25.08.38.12a9.34,9.34,0,0,1,4.7-3.23,11.7,11.7,0,0,0,2.65-1.27,17.77,17.77,0,0,0,5.77-6.32l.9,1.66a6.39,6.39,0,0,0,1.45-4,12.18,12.18,0,0,0-.28-3.44l-.06,0a11.62,11.62,0,0,0-4.23,2.51,9.06,9.06,0,0,0-1.67,2.21h1.88a14.59,14.59,0,0,1-3.57,2.77,6.92,6.92,0,0,1-3.11.86,2.24,2.24,0,0,1-1.33-.29,2.67,2.67,0,0,1-.9-1.41,14.49,14.49,0,0,1-.53-3.09c-.19-2.1-.19-11.33-.2-13h3a3.19,3.19,0,0,0,.54.58,2.28,2.28,0,0,0,3.74-1.86,2.57,2.57,0,0,0-.12-.56,6.07,6.07,0,0,0-.31-.63s-.33-.36-.42-.44a2.44,2.44,0,0,0-.74-.41,2.18,2.18,0,0,0-.84-.12,2.37,2.37,0,0,0-1.72.9h-3.19c0-.7,0-1.4,0-2.1a5.74,5.74,0,0,0,1.36-.89,4.6,4.6,0,0,0,1.5-3.4,4.43,4.43,0,0,0-.7-2.43,4.63,4.63,0,0,0-2.81-2A4.72,4.72,0,0,0,1963,29.95Zm3.93,3.71a2.15,2.15,0,0,1-.13,1.53,2.25,2.25,0,0,1-1.75,1.24,2.18,2.18,0,0,1-.5-4.33A2.25,2.25,0,0,1,1966.92,33.66Z" style="fill:#fff"/><polygon points="1763.45 108.64 1712.77 21.26 1813.56 20.96 1763.45 108.64" style="fill:#fff"/><path d="M1761.39,30.8a4.75,4.75,0,0,0-2.46,2.34,4.65,4.65,0,0,0-.38,2.55,4.53,4.53,0,0,0,1.15,2.46,5,5,0,0,0,1.72,1.22v2.11h-3.2a2.38,2.38,0,0,0-1.93-.89,2.35,2.35,0,0,0-1.64.82,2.22,2.22,0,0,0-.5,1.79A2.29,2.29,0,0,0,1757,45a2.42,2.42,0,0,0,1.46-1.07h3l0,9.18a46.76,46.76,0,0,1-.41,6.16,3.82,3.82,0,0,1-1,2.15,2.51,2.51,0,0,1-1.76.34,7.23,7.23,0,0,1-3.27-1.1,19,19,0,0,1-1.65-1.14,17.58,17.58,0,0,1-1.39-1.27h1.87a9.35,9.35,0,0,0-2.34-2.78,12.84,12.84,0,0,0-3.64-1.91,9.34,9.34,0,0,0-.26,1.8,12.58,12.58,0,0,0,.13,2.84,6.08,6.08,0,0,0,1.35,2.85c.31-.55.59-1.11.89-1.67a17.25,17.25,0,0,0,2.07,3,18,18,0,0,0,1.72,1.76,13,13,0,0,0,4.68,2.78,10.87,10.87,0,0,1,2.91,1.42,7.29,7.29,0,0,1,1.72,1.66c.07.14.25.08.38.12a9.34,9.34,0,0,1,4.71-3.22,11.7,11.7,0,0,0,2.65-1.26,17.76,17.76,0,0,0,5.78-6.3l.89,1.66a6.39,6.39,0,0,0,1.46-4,12.18,12.18,0,0,0-.27-3.44l-.06,0a11.61,11.61,0,0,0-4.24,2.5,9.06,9.06,0,0,0-1.68,2.2h1.88A14.59,14.59,0,0,1,1771,61a6.92,6.92,0,0,1-3.11.85,2.24,2.24,0,0,1-1.33-.29,2.67,2.67,0,0,1-.9-1.42,14.49,14.49,0,0,1-.53-3.09c-.19-2.1-.16-11.33-.17-13h3a3.19,3.19,0,0,0,.54.59,2.28,2.28,0,0,0,3.75-1.86,2.57,2.57,0,0,0-.12-.56,6.07,6.07,0,0,0-.31-.64s-.33-.36-.42-.44a2.43,2.43,0,0,0-.74-.41,2.18,2.18,0,0,0-.84-.12,2.37,2.37,0,0,0-1.72.9h-3.19c0-.7,0-1.4,0-2.1a5.73,5.73,0,0,0,1.37-.88,4.59,4.59,0,0,0,1.51-3.39,4.43,4.43,0,0,0-.7-2.43,4.63,4.63,0,0,0-2.81-2A4.72,4.72,0,0,0,1761.39,30.8Zm3.92,3.72a2.15,2.15,0,0,1-.14,1.53,2.25,2.25,0,0,1-1.75,1.24,2.18,2.18,0,0,1-.49-4.33A2.25,2.25,0,0,1,1765.31,34.52Z" style="fill:#004b93"/><polygon points="2015.05 16.9 1813.46 17.86 1611.88 18.45 1611.89 21.45 1813.47 20.87 2015.06 19.9 2015.05 16.9" style="fill:#c8c8c8"/><polygon points="2267.78 105.81 2216.68 18.66 2317.46 17.89 2267.78 105.81" style="fill:#65beec"/><polygon points="2066.29 107.27 2015.36 20 2116.14 19.4 2066.29 107.27" style="fill:#004b93"/><polygon points="2368.78 104.93 2317.59 17.89 2418.37 16.91 2368.78 104.93" style="fill:#eb5d73"/><path d="M2366.26,27.1a4.75,4.75,0,0,0-2.44,2.36,4.65,4.65,0,0,0-.36,2.55,4.53,4.53,0,0,0,1.17,2.45,5,5,0,0,0,1.73,1.21l0,2.11-3.2,0a2.38,2.38,0,0,0-1.93-.88,2.35,2.35,0,0,0-1.64.83,2.22,2.22,0,0,0-.49,1.8,2.28,2.28,0,0,0,2.8,1.81,2.42,2.42,0,0,0,1.45-1.08l3,0,.08,9.18a46.79,46.79,0,0,1-.38,6.16,3.82,3.82,0,0,1-1,2.16,2.52,2.52,0,0,1-1.76.35,7.22,7.22,0,0,1-3.28-1.07,19,19,0,0,1-1.65-1.13,17.58,17.58,0,0,1-1.4-1.26l1.87,0a9.34,9.34,0,0,0-2.36-2.76,12.83,12.83,0,0,0-3.65-1.89,9.34,9.34,0,0,0-.25,1.8,12.58,12.58,0,0,0,.15,2.84,6.07,6.07,0,0,0,1.36,2.84c.31-.55.59-1.12.88-1.68a17.22,17.22,0,0,0,2.09,3,18,18,0,0,0,1.73,1.75,13,13,0,0,0,4.69,2.74,10.86,10.86,0,0,1,2.92,1.4,7.28,7.28,0,0,1,1.73,1.65c.07.14.25.08.38.11a9.35,9.35,0,0,1,4.69-3.26,11.71,11.71,0,0,0,2.64-1.28,17.79,17.79,0,0,0,5.75-6.34l.9,1.66a6.39,6.39,0,0,0,1.43-4,12.18,12.18,0,0,0-.29-3.44l-.06,0a11.63,11.63,0,0,0-4.22,2.53,9.07,9.07,0,0,0-1.66,2.21l1.88,0a14.6,14.6,0,0,1-3.56,2.79,6.93,6.93,0,0,1-3.1.87,2.24,2.24,0,0,1-1.33-.28,2.66,2.66,0,0,1-.91-1.41,14.5,14.5,0,0,1-.54-3.09c-.2-2.09-.23-11.33-.25-13l3,0a3.19,3.19,0,0,0,.54.58,2.28,2.28,0,0,0,3.74-1.88,2.57,2.57,0,0,0-.12-.56,6,6,0,0,0-.32-.63s-.33-.36-.42-.44a2.43,2.43,0,0,0-.74-.41,2.18,2.18,0,0,0-.84-.11,2.37,2.37,0,0,0-1.71.91l-3.19,0c0-.7,0-1.4,0-2.1a5.74,5.74,0,0,0,1.36-.89,4.6,4.6,0,0,0,1.49-3.4,4.43,4.43,0,0,0-.71-2.43,4.63,4.63,0,0,0-2.82-2A4.72,4.72,0,0,0,2366.26,27.1Zm3.94,3.69a2.15,2.15,0,0,1-.13,1.53,2.25,2.25,0,0,1-1.74,1.25,2.18,2.18,0,0,1-.51-4.33A2.24,2.24,0,0,1,2370.21,30.8Z" style="fill:#fff"/><polygon points="2167.04 106.56 2116.02 19.4 2216.8 18.66 2167.04 106.56" style="fill:#fff"/><path d="M2164.68,28.72a4.75,4.75,0,0,0-2.45,2.36,4.65,4.65,0,0,0-.37,2.55,4.53,4.53,0,0,0,1.16,2.45,5,5,0,0,0,1.73,1.21l0,2.11-3.2,0a2.38,2.38,0,0,0-1.93-.88,2.35,2.35,0,0,0-1.64.83,2.22,2.22,0,0,0-.5,1.8,2.28,2.28,0,0,0,2.8,1.82,2.42,2.42,0,0,0,1.45-1.08l3,0,.06,9.18a46.77,46.77,0,0,1-.39,6.16,3.82,3.82,0,0,1-1,2.16,2.52,2.52,0,0,1-1.76.34,7.22,7.22,0,0,1-3.27-1.08,19,19,0,0,1-1.65-1.13,17.57,17.57,0,0,1-1.4-1.27h1.87a9.34,9.34,0,0,0-2.35-2.77,12.83,12.83,0,0,0-3.65-1.89,9.34,9.34,0,0,0-.26,1.8,12.58,12.58,0,0,0,.14,2.84,6.07,6.07,0,0,0,1.36,2.84c.31-.55.59-1.12.88-1.68a17.23,17.23,0,0,0,2.08,3,18,18,0,0,0,1.73,1.75,13,13,0,0,0,4.69,2.75,10.86,10.86,0,0,1,2.91,1.41,7.28,7.28,0,0,1,1.73,1.65c.07.14.25.08.38.11a9.34,9.34,0,0,1,4.7-3.24,11.7,11.7,0,0,0,2.64-1.27,17.78,17.78,0,0,0,5.76-6.33l.9,1.66a6.39,6.39,0,0,0,1.44-4,12.18,12.18,0,0,0-.28-3.44l-.06,0a11.62,11.62,0,0,0-4.23,2.52,9.06,9.06,0,0,0-1.67,2.21l1.88,0a14.6,14.6,0,0,1-3.56,2.78,6.93,6.93,0,0,1-3.1.86,2.24,2.24,0,0,1-1.33-.28,2.66,2.66,0,0,1-.9-1.41,14.49,14.49,0,0,1-.54-3.09c-.19-2.09-.21-11.33-.22-13l3,0a3.19,3.19,0,0,0,.54.58,2.28,2.28,0,0,0,3.74-1.87,2.56,2.56,0,0,0-.12-.56,6.06,6.06,0,0,0-.32-.63s-.33-.36-.42-.44a2.43,2.43,0,0,0-.74-.41,2.18,2.18,0,0,0-.84-.11,2.37,2.37,0,0,0-1.72.91l-3.19,0c0-.7,0-1.4,0-2.1a5.74,5.74,0,0,0,1.36-.89,4.6,4.6,0,0,0,1.49-3.4,4.43,4.43,0,0,0-.71-2.43,4.63,4.63,0,0,0-2.82-2A4.72,4.72,0,0,0,2164.68,28.72Zm3.94,3.7a2.15,2.15,0,0,1-.13,1.53,2.25,2.25,0,0,1-1.74,1.24,2.18,2.18,0,0,1-.5-4.33A2.24,2.24,0,0,1,2168.61,32.42Z" style="fill:#004b93"/><path d="M2418.26,13.82l-100.78,1-100.79.76c-67.19.48-134.38,1.06-201.58,1.34l0,3c67.2-.28,134.39-.86,201.58-1.34l100.79-.76,100.78-1Z" style="fill:#c8c8c8"/><polygon points="2671.39 101.63 2619.89 14.72 2720.65 13.49 2671.39 101.63" style="fill:#65beec"/><polygon points="2469.88 103.95 2418.59 16.91 2519.37 15.93 2469.88 103.95" style="fill:#004b93"/><polygon points="2772.41 100.28 2720.78 13.49 2821.52 11.99 2772.41 100.28" style="fill:#eb5d73"/><path d="M2769.49,22.47a4.75,4.75,0,0,0-2.43,2.37,4.65,4.65,0,0,0-.35,2.55,4.53,4.53,0,0,0,1.18,2.44,5,5,0,0,0,1.74,1.2l0,2.11-3.2,0a2.37,2.37,0,0,0-1.94-.87,2.35,2.35,0,0,0-1.63.84,2.22,2.22,0,0,0-.48,1.8,2.28,2.28,0,0,0,2.81,1.8,2.42,2.42,0,0,0,1.45-1.09l3,0,.13,9.18a46.78,46.78,0,0,1-.35,6.16,3.82,3.82,0,0,1-1,2.16,2.52,2.52,0,0,1-1.76.36,7.22,7.22,0,0,1-3.28-1.06,19,19,0,0,1-1.66-1.12,17.55,17.55,0,0,1-1.41-1.26l1.87,0a9.33,9.33,0,0,0-2.37-2.75,12.82,12.82,0,0,0-3.66-1.87,9.35,9.35,0,0,0-.24,1.81,12.58,12.58,0,0,0,.16,2.84,6.07,6.07,0,0,0,1.38,2.83c.31-.55.58-1.12.87-1.68a17.21,17.21,0,0,0,2.1,3,18,18,0,0,0,1.74,1.74,13,13,0,0,0,4.71,2.72,10.86,10.86,0,0,1,2.92,1.39,7.28,7.28,0,0,1,1.74,1.64c.08.14.26.08.38.11a9.35,9.35,0,0,1,4.67-3.28,11.71,11.71,0,0,0,2.64-1.29,17.79,17.79,0,0,0,5.71-6.38l.91,1.65a6.39,6.39,0,0,0,1.41-4A12.18,12.18,0,0,0,2787,45l-.06,0a11.63,11.63,0,0,0-4.21,2.55,9.07,9.07,0,0,0-1.65,2.22l1.88,0a14.61,14.61,0,0,1-3.54,2.81,6.93,6.93,0,0,1-3.1.89,2.24,2.24,0,0,1-1.34-.27,2.66,2.66,0,0,1-.91-1.4,14.48,14.48,0,0,1-.56-3.09c-.21-2.09-.29-11.32-.32-13l3,0a3.18,3.18,0,0,0,.55.58,2.28,2.28,0,0,0,3.73-1.9,2.56,2.56,0,0,0-.13-.56,6.07,6.07,0,0,0-.32-.63s-.33-.36-.43-.44a2.43,2.43,0,0,0-.74-.4,2.18,2.18,0,0,0-.84-.11,2.37,2.37,0,0,0-1.71.92l-3.19,0c0-.7,0-1.4,0-2.1a5.74,5.74,0,0,0,1.36-.9,4.6,4.6,0,0,0,1.47-3.41,4.43,4.43,0,0,0-.72-2.42,4.62,4.62,0,0,0-2.83-2A4.72,4.72,0,0,0,2769.49,22.47Zm4,3.67a2.15,2.15,0,0,1-.12,1.53,2.25,2.25,0,0,1-1.74,1.26,2.18,2.18,0,0,1-.53-4.32A2.24,2.24,0,0,1,2773.45,26.14Z" style="fill:#fff"/><polygon points="2570.63 102.87 2519.24 15.94 2620.01 14.72 2570.63 102.87" style="fill:#fff"/><path d="M2567.93,25a4.75,4.75,0,0,0-2.44,2.37,4.65,4.65,0,0,0-.36,2.55,4.53,4.53,0,0,0,1.17,2.45,5,5,0,0,0,1.73,1.2l0,2.11-3.2,0a2.37,2.37,0,0,0-1.93-.87,2.35,2.35,0,0,0-1.64.84,2.22,2.22,0,0,0-.49,1.8,2.28,2.28,0,0,0,2.81,1.81,2.42,2.42,0,0,0,1.45-1.08l3,0,.1,9.18a46.78,46.78,0,0,1-.36,6.16,3.82,3.82,0,0,1-1,2.16,2.52,2.52,0,0,1-1.76.35,7.22,7.22,0,0,1-3.28-1.07,19,19,0,0,1-1.66-1.12,17.55,17.55,0,0,1-1.4-1.26l1.87,0a9.34,9.34,0,0,0-2.37-2.75A12.82,12.82,0,0,0,2554.6,48a9.34,9.34,0,0,0-.25,1.81,12.57,12.57,0,0,0,.16,2.84,6.07,6.07,0,0,0,1.37,2.84c.31-.55.59-1.12.88-1.68a17.22,17.22,0,0,0,2.09,3,18,18,0,0,0,1.74,1.75,13,13,0,0,0,4.7,2.73,10.86,10.86,0,0,1,2.92,1.4,7.28,7.28,0,0,1,1.74,1.64c.07.14.25.08.38.11a9.35,9.35,0,0,1,4.68-3.27,11.71,11.71,0,0,0,2.64-1.29,17.79,17.79,0,0,0,5.73-6.36l.91,1.66a6.39,6.39,0,0,0,1.42-4,12.18,12.18,0,0,0-.3-3.44l-.06,0a11.63,11.63,0,0,0-4.22,2.54,9.07,9.07,0,0,0-1.66,2.22l1.88,0a14.61,14.61,0,0,1-3.55,2.8,6.93,6.93,0,0,1-3.1.88,2.24,2.24,0,0,1-1.33-.28,2.66,2.66,0,0,1-.91-1.41,14.49,14.49,0,0,1-.55-3.09c-.2-2.09-.26-11.33-.28-13l3,0a3.19,3.19,0,0,0,.54.58,2.28,2.28,0,0,0,3.73-1.89,2.57,2.57,0,0,0-.12-.56,6,6,0,0,0-.32-.63s-.33-.36-.42-.44a2.43,2.43,0,0,0-.74-.41,2.18,2.18,0,0,0-.84-.11,2.37,2.37,0,0,0-1.71.92l-3.19,0c0-.7,0-1.4,0-2.1a5.75,5.75,0,0,0,1.36-.9,4.6,4.6,0,0,0,1.48-3.41,4.43,4.43,0,0,0-.72-2.42,4.63,4.63,0,0,0-2.83-2A4.72,4.72,0,0,0,2567.93,25Zm4,3.68a2.15,2.15,0,0,1-.12,1.53,2.25,2.25,0,0,1-1.74,1.25,2.18,2.18,0,0,1-.52-4.33A2.24,2.24,0,0,1,2571.88,28.73Z" style="fill:#004b93"/><polygon points="2821.4 8.9 2720.66 10.39 2619.89 11.63 2519.12 12.84 2418.34 13.81 2418.37 16.82 2519.15 15.84 2619.92 14.63 2720.7 13.4 2821.45 11.9 2821.4 8.9" style="fill:#c8c8c8"/><path d="M3075.11,95.12,3022.94,8.56l50.35-.95c16.79-.3,33.54-.77,50.32-1.15Z" style="fill:#65beec"/><polygon points="2873.52 98.75 2821.75 11.99 2922.49 10.45 2873.52 98.75" style="fill:#004b93"/><polygon points="3176.23 92.77 3123.74 6.46 3224.36 4.07 3176.23 92.77" style="fill:#eb5d73"/><path d="M3172.49,15a4.74,4.74,0,0,0-2.4,2.4,4.65,4.65,0,0,0-.32,2.55,4.54,4.54,0,0,0,1.21,2.43,5,5,0,0,0,1.75,1.18l.05,2.1-3.19.07a2.38,2.38,0,0,0-1.94-.85,2.34,2.34,0,0,0-1.62.86,2.22,2.22,0,0,0-.47,1.8,2.29,2.29,0,0,0,2.83,1.77,2.41,2.41,0,0,0,1.43-1.1l3-.07.22,9.18a46.76,46.76,0,0,1-.28,6.16,3.81,3.81,0,0,1-1,2.17,2.51,2.51,0,0,1-1.76.37,7.23,7.23,0,0,1-3.29-1,19,19,0,0,1-1.67-1.1,17.59,17.59,0,0,1-1.42-1.25l1.87,0a9.36,9.36,0,0,0-2.4-2.73,12.84,12.84,0,0,0-3.68-1.83,9.33,9.33,0,0,0-.23,1.81,12.59,12.59,0,0,0,.19,2.84,6.08,6.08,0,0,0,1.41,2.82c.3-.56.57-1.13.85-1.69a17.25,17.25,0,0,0,2.13,2.94,18.06,18.06,0,0,0,1.76,1.72,13,13,0,0,0,4.74,2.68,10.88,10.88,0,0,1,2.94,1.36,7.3,7.3,0,0,1,1.76,1.62c.08.13.26.08.38.11a9.33,9.33,0,0,1,4.64-3.32,11.68,11.68,0,0,0,2.62-1.32,17.73,17.73,0,0,0,5.64-6.42l.93,1.65a6.38,6.38,0,0,0,1.37-4.05,12.19,12.19,0,0,0-.35-3.43l-.06,0a11.59,11.59,0,0,0-4.18,2.59,9,9,0,0,0-1.63,2.24l1.88,0a14.56,14.56,0,0,1-3.51,2.84,6.92,6.92,0,0,1-3.09.91,2.24,2.24,0,0,1-1.34-.26,2.67,2.67,0,0,1-.93-1.4,14.5,14.5,0,0,1-.59-3.08c-.23-2.09-.41-11.32-.45-13l3-.07a3.19,3.19,0,0,0,.55.57,2.28,2.28,0,0,0,3.7-1.93,2.57,2.57,0,0,0-.13-.56,6.08,6.08,0,0,0-.33-.63s-.34-.36-.43-.43a2.44,2.44,0,0,0-.75-.4,2.18,2.18,0,0,0-.84-.1,2.37,2.37,0,0,0-1.7.94l-3.19.07c0-.7-.05-1.4,0-2.1a5.72,5.72,0,0,0,1.35-.91,4.59,4.59,0,0,0,1.43-3.42,4.44,4.44,0,0,0-.75-2.41,4.63,4.63,0,0,0-2.85-2A4.71,4.71,0,0,0,3172.49,15Zm4,3.64a2.15,2.15,0,0,1-.1,1.53,2.25,2.25,0,0,1-1.72,1.27,2.18,2.18,0,0,1-.58-4.32A2.25,2.25,0,0,1,3176.48,18.62Z" style="fill:#fff"/><polygon points="2974.31 97.02 2922.36 10.45 3023.07 8.55 2974.31 97.02" style="fill:#fff"/><path d="M2971.09,19.21a4.75,4.75,0,0,0-2.42,2.38,4.65,4.65,0,0,0-.34,2.55,4.53,4.53,0,0,0,1.19,2.44,5,5,0,0,0,1.74,1.19l0,2.11-3.19.06a2.37,2.37,0,0,0-1.94-.86,2.35,2.35,0,0,0-1.63.85,2.22,2.22,0,0,0-.48,1.8,2.28,2.28,0,0,0,2.82,1.79,2.42,2.42,0,0,0,1.44-1.09l3-.06.16,9.18a46.77,46.77,0,0,1-.32,6.16,3.82,3.82,0,0,1-1,2.17,2.52,2.52,0,0,1-1.76.36,7.22,7.22,0,0,1-3.29-1,19,19,0,0,1-1.66-1.11,17.54,17.54,0,0,1-1.41-1.25l1.87,0a9.34,9.34,0,0,0-2.38-2.74,12.82,12.82,0,0,0-3.67-1.85,9.34,9.34,0,0,0-.24,1.81,12.58,12.58,0,0,0,.17,2.84,6.07,6.07,0,0,0,1.39,2.83c.3-.55.58-1.12.87-1.69a17.21,17.21,0,0,0,2.11,2.95,18,18,0,0,0,1.75,1.73,13,13,0,0,0,4.72,2.7,10.86,10.86,0,0,1,2.93,1.38,7.28,7.28,0,0,1,1.75,1.63c.08.14.26.08.38.11a9.35,9.35,0,0,1,4.66-3.3,11.71,11.71,0,0,0,2.63-1.3,17.78,17.78,0,0,0,5.69-6.4l.92,1.65a6.39,6.39,0,0,0,1.39-4,12.18,12.18,0,0,0-.32-3.44l-.06,0a11.62,11.62,0,0,0-4.2,2.57,9.07,9.07,0,0,0-1.64,2.23l1.88,0a14.6,14.6,0,0,1-3.53,2.82,6.93,6.93,0,0,1-3.09.9,2.24,2.24,0,0,1-1.34-.27,2.66,2.66,0,0,1-.92-1.4,14.48,14.48,0,0,1-.57-3.09c-.22-2.09-.33-11.32-.37-13l3-.05a3.18,3.18,0,0,0,.55.58,2.28,2.28,0,0,0,3.72-1.91,2.56,2.56,0,0,0-.13-.56,6,6,0,0,0-.32-.63s-.33-.36-.43-.43a2.43,2.43,0,0,0-.74-.4,2.18,2.18,0,0,0-.84-.11,2.37,2.37,0,0,0-1.7.93l-3.19.05c0-.7,0-1.4,0-2.1a5.74,5.74,0,0,0,1.35-.9,4.6,4.6,0,0,0,1.46-3.42,4.43,4.43,0,0,0-.73-2.42,4.63,4.63,0,0,0-2.84-2A4.72,4.72,0,0,0,2971.09,19.21Zm4,3.66a2.15,2.15,0,0,1-.11,1.53,2.25,2.25,0,0,1-1.73,1.26,2.18,2.18,0,0,1-.55-4.32A2.24,2.24,0,0,1,2975.06,22.87Z" style="fill:#004b93"/><path d="M3224.2,1,3123.59,3.36c-16.77.38-33.53.84-50.32,1.15l-50.35.95-100.7,1.89L2821.48,8.89l0,3,100.75-1.55L3023,8.46l50.36-.95c16.79-.3,33.55-.77,50.32-1.15L3224.28,4Z" style="fill:#c8c8c8"/><path d="M3226,4.07v118.7H0V3H.34L100.7,6.62l25.1.9L138.34,8c4.19.15,8.38.22,12.57.34L201.2,9.6l100.58,2.55L402.45,14h.07l50.34.91,25.17.46,12.58.22,12.59.16L603.93,17l100.73,1.23,100.76.84,0-3h.07l0,3L906.25,20l100.78.52c67.18.32,134.36.74,201.55.79v-3h.07v3l100.78.2,100.79.11,201.58-.12v-3h.07v3l201.58-.59,201.59-1v-3h.07l0,3c67.19-.28,134.39-.86,201.58-1.34l100.79-.77,100.78-1h.08l100.78-1,100.77-1.21,100.78-1.24,100.75-1.49h.07l100.75-1.54L3023,8.46l50.35-1c16.79-.3,33.55-.77,50.33-1.15h.08v.1l52.49,86.31,48.13-88.7ZM3075.11,95.12l48.5-88.66c-16.77.38-33.53.84-50.32,1.15l-50.22.94h-.13l-100.45,1.89h-.13L2821.75,12l51.77,86.75,48.91-88.19L2974.31,97,3023,8.66Zm-302.7,5.16L2821.52,12l-100.74,1.5Zm-101,1.35,49.26-88.14L2620,14.72h-.12l-100.52,1.21h-.12l-100.66,1,51.29,87L2519.31,16l51.32,86.83,49.32-88Zm-302.61,3.3,49.59-88-100.78,1Zm-101,.88,49.68-87.92-100.66.76h-.12l-100.54.75H2116L2015.36,20l50.93,87.27,49.79-87.76,51,87.05,49.7-87.8Zm-302.58,2L2015.14,20l-100.79.52Zm-101,.52,50-87.79L1813.56,21h-.12l-100.54.29h-.13l-100.66.3,50.59,87.38,50.14-87.57,50.61,87.28,50-87.58Zm-302.59.8,50.28-87.56-100.79.06Zm-101,.06L1511,21.61l-100.66.06h-.12l-100.53-.11h-.12l-100.66-.2L1259.09,109l50.51-87.33,50.25,87.53,50.4-87.42ZM1158,108.79l50.67-87.43c-33.6-.09-67.19-.08-100.78-.3Zm-101-.45,50.78-87.28-100.64-.5H1007l-100.52-.51h-.13L805.72,19.2l49.71,88,51-87,49.81,87.68,50.84-87.18Zm-302.67-2L805.49,19.2l-100.75-.85Zm-101-1,51.36-86.94L603.89,17.12h0L503.42,15.85h-.12l-12.47-.16-12.58-.22L453.08,15l-50.33-.91,48.89,88.43,25.92-43.3L503.36,16,552.46,104,604,17.24ZM350.45,100.7l52.07-86.6L301.86,12.25ZM301.73,12.25,201.28,9.69h-.12L151,8.42c-4.19-.12-8.39-.19-12.57-.34l-12.55-.46-25-.9h-.13L.55,3.1q23.21,44.63,46.8,89.28,27-42.76,53.5-85.55l23.66,44.54,11.93,22.32,12,22.22q26.52-43.06,52.81-86.12,23.94,44.34,48.1,88.69Q275.65,55.37,301.73,12.25Z" style="fill:#f2f7f8"/></svg>