<svg xmlns="http://www.w3.org/2000/svg" viewBox="0 0 604.82 393.89"><title>logo</title><text transform="translate(127.06 281.74)" style="font-size:138.28781127929688px;fill:#fff;font-family:Befolk-Regular, Befolk "><tspan xml:space="preserve"> B</tspan><tspan x="121.83" y="0" style="letter-spacing:-0.11898548716643502em">a</tspan><tspan x="173.41" y="0" style="letter-spacing:0.0000035370239942459875em">rtosz</tspan></text><text transform="translate(104.2 220.96)" style="font-size:97.7703628540039px;fill:#f8fdfe;font-family:Befolk-Regular, Befolk ">&amp;</text><text transform="translate(0 134.2)" style="font-size:138.28781127929688px;fill:#fff;font-family:Befolk-Regular, Befolk ">M<tspan x="115.19" y="0" style="letter-spacing:-0.11898902419042927em">a</tspan><tspan x="166.77" y="0" style="letter-spacing:-0.0000035370239942459875em">rtyna</tspan></text><path d="M525.52,102.33l.53.15c4.69,1.44,7.66,7.14,5.75,11.74-.87,2.6-3.14,4.35-5.55,5.43-.55,1.9-1.07,3.8-1.59,5.71a22.23,22.23,0,0,0,6.9,1.07c3.26.93,3.72,5.85.74,7.41-3.32,1.8-6-2.11-9.37-2.16q-5.78,20.91-11.52,41.85c7.73,1.41,16.4,1,22.79-4.12-1.94-.5-4.06-.56-5.86-1.5-1.36-.81-.7-3.09.77-3.32,3.71-1.23,7.54-2.1,11.29-3.24,1.48-.36,2.95-1,4.5-.92,1.59.38,1.44,2.26,1.31,3.52-.46,4.57-.67,9.17-1.2,13.72a2,2,0,0,1-2.93,1.66c-1.35-1.6-1.86-3.69-2.69-5.57-8,7.29-18.45,12.69-29.49,12.33-3-.14-4.94,3-7.91,3.06-2.53-1.54-2.58-5.24-5.2-6.66-9.68-5.34-15.93-15.33-19.05-25.7-1.69,1.18-3.2,2.71-5.18,3.4a2,2,0,0,1-1.67-2.92c1.88-4.19,4-8.25,6-12.41.54-1.13,1.34-2.82,2.91-2.36,1.27.59,2.1,1.79,3.07,2.73,2.74,3,5.69,5.83,8.37,8.9,1.19,1,.56,3.31-1.06,3.27-2-.14-3.85-1.14-5.76-1.71,2.89,7.64,10.11,12.45,17.48,15.2Q507.62,150,513.38,129a22.64,22.64,0,0,0-6.93-1.08c-3.27-1-3.66-5.91-.65-7.43,3.31-1.73,6,2.14,9.32,2.19.52-1.9,1-3.81,1.55-5.72a9.64,9.64,0,0,1-2-7.52c.72-4.89,6.11-8.23,10.83-7.15m-2.74,6.49a2.36,2.36,0,0,0-.57,4.22,2.34,2.34,0,1,0,.57-4.22Z" style="fill:#8accea"/><path d="M555.49,85.77l.55-.09c4.91-.63,10,3.37,10.15,8.39.28,2.74-1.07,5.3-2.85,7.29.28,2,.6,3.94.91,5.9a22.4,22.4,0,0,0,6.78-1.88c3.38-.5,5.84,3.83,3.75,6.5-2.3,3-6.42.57-9.5,1.91q3.38,21.6,6.79,43.21c7.69-1.91,15.46-5.92,19.22-13.24-2,.34-4,1.18-6,1.05-1.58-.18-1.93-2.54-.67-3.37,2.9-2.67,6.05-5.06,9-7.66,1.21-.94,2.27-2.18,3.75-2.71,1.62-.31,2.26,1.48,2.67,2.68,1.48,4.38,3.19,8.7,4.59,13.1a2,2,0,0,1-2,2.74c-1.9-.91-3.24-2.62-4.79-4-4.31,10-11.67,19.32-22,23.57-2.81,1.12-3.28,4.83-6,6.1-3-.37-4.54-3.74-7.53-4-11.1-.88-21-7.47-28.17-15.69-1.06,1.79-1.82,3.82-3.35,5.27a2,2,0,0,1-2.74-2c0-4.63.29-9.25.35-13.88,0-1.27.06-3.14,1.69-3.38,1.41,0,2.67.77,4,1.23,3.76,1.63,7.65,3,11.38,4.7,1.49.39,1.89,2.81.38,3.45-1.91.71-4,.55-6,.82,5.83,5.82,14.45,7.24,22.36,6.7q-3.41-21.61-6.81-43.22a22.82,22.82,0,0,0-6.81,1.89c-3.4.48-5.82-3.91-3.68-6.56,2.32-3,6.39-.53,9.47-1.86-.31-2-.62-3.93-.95-5.89-2.31-1.35-4.38-3.38-5-6.08-1.37-4.79,2.19-10.1,7-11.06m.18,7.1A2.37,2.37,0,0,0,556.89,97a2.36,2.36,0,1,0-1.23-4.12Z" style="fill:#f45974"/></svg>