<?xml version="1.0" encoding="utf-8"?>
<!-- Generator: Adobe Illustrator 21.1.0, SVG Export Plug-In . SVG Version: 6.00 Build 0)  -->
<svg version="1.1" id="Layer_1" xmlns="http://www.w3.org/2000/svg" xmlns:xlink="http://www.w3.org/1999/xlink" x="0px" y="0px"
	 viewBox="0 0 604.8 393.9" style="enable-background:new 0 0 604.8 393.9;" xml:space="preserve">
<style type="text/css">
	.st0{enable-background:new    ;}
	.st1{fill:#FFFFFF;}
	.st2{fill:#F8FDFE;}
	.st3{fill:#8ACCEA;}
	.st4{fill:#F45974;}
</style>
<title>logo</title>
<g class="st0">
	<path class="st1" d="M189.2,202.2c0.2-1.8,0.9-3.4,2.1-4.8c1.2-1.3,2.9-2.1,5.1-2.4c1.8-0.2,3.3,0,4.6,0.5c1.3,0.5,2.4,1.2,3.4,2.1
		c1,0.9,1.8,2,2.5,3.2c0.7,1.2,1.5,2.4,2.3,3.5c0.2,0.5,0.8,0.5,1.9,0c1.1-0.5,2.4-1.2,3.8-2.1c1.4-1,3-2.1,4.6-3.3
		c1.7-1.2,3.2-2.5,4.8-3.7c1.5-1.2,2.8-2.3,3.9-3.2c1.1-0.9,1.7-1.5,2-1.8c2.7-2.3,5.1-4.7,7.3-7.3c2.2-2.6,4.3-5.2,6.4-7.9
		c0.6-0.7,1.2-1.5,1.7-2.3c0.5-0.8,0.9-1.7,1.2-2.7c0.3-0.6,0.4-1,0.3-1.2c0-0.3-0.3-0.5-0.8-0.7c-0.7-0.4-1.7-0.6-2.9-0.6
		c-3,0.1-6,0.6-9.3,1.7c-3.2,1-6.3,2.2-9.3,3.5c-2.7,1.2-5.4,2.3-8.2,3.2c-2.8,0.9-5.6,1.5-8.4,1.8c-3,0.4-5.7,0.4-8.2,0.1
		c-2.5-0.3-5-0.8-7.5-1.5c-1.2-0.4-2.3-0.9-3.2-1.5c-0.9-0.6-1.7-1.4-2.2-2.4c-0.4-0.8-0.5-1.6-0.3-2.3c0.2-0.7,0.6-1.3,1.1-1.9
		c0.6-0.6,1.2-1.2,1.9-1.7c0.7-0.5,1.4-1,2.1-1.5c5-3,10.1-5.7,15.3-8c5.2-2.3,10.5-4,16-5.3c6.1-1.6,11.9-2,17.4-1.2
		c5.5,0.8,10.5,2.7,14.9,5.7c1.9,1.4,3.7,3,5.2,5c1.5,1.9,2.7,4.1,3.5,6.4c0.8,2.3,1.2,4.8,1.1,7.4c-0.1,2.6-0.8,5.3-2.1,8.1
		c-1.4,3.3-3.2,6.5-5.5,9.5c-2.3,3-4.8,5.8-7.5,8.5c-0.5,0.5-1.6,1.4-3.5,2.8c-1.9,1.4-3.8,2.9-5.8,4.4c-2,1.6-3.8,3-5.3,4.4
		c-1.6,1.4-2.3,2.3-2.2,2.6c0.4,1.4,0.9,2.6,1.7,3.6c0.7,1,1.6,2,2.6,2.8c1,0.9,1.9,1.8,2.9,2.6c1,0.9,1.9,1.8,2.8,2.7
		c3.2,3.8,5,8.1,5.3,12.9c0.3,4.8-0.6,9.8-2.6,14.8c-2,5-4.8,9.9-8.4,14.6c-3.6,4.7-7.8,8.7-12.4,12.1c-4.7,3.4-9.6,5.8-14.8,7.3
		c-5.2,1.5-10.3,1.7-15.1,0.5c-3.3-0.8-6.7-2.4-10.1-4.7c-3.4-2.3-6.3-5.1-8.6-8.4c-2.3-3.3-3.8-6.9-4.4-10.8
		c-0.6-3.9,0.3-8,2.6-12.1c2-3.5,5-5.6,8.9-6.4c1.3-0.3,2.4-0.2,3.5,0.1c1,0.4,1.9,0.9,2.7,1.7c0.8,0.8,1.4,1.7,1.9,2.8
		c0.5,1.1,0.7,2.1,0.8,3.1c0.3,1.9,0,3.7-0.8,5.3c-0.8,1.6-1.7,3.3-2.6,5.2c-0.5,0.8-0.8,1.8-1.1,2.9c-0.3,1.1-0.3,2.1-0.2,3.1
		c0.1,1,0.5,1.8,1,2.6c0.5,0.7,1.3,1.2,2.4,1.2c3.9,0.4,7.7-0.5,11.6-2.7c3.9-2.2,7.5-5,10.8-8.4c3.3-3.4,6.2-7.1,8.7-11.1
		c2.5-4,4.4-7.6,5.7-10.9c0.6-1.6,1.1-3.3,1.6-5.1c0.5-1.8,0.7-3.6,0.7-5.4c0-1.8-0.3-3.4-0.9-4.9s-1.6-2.7-3-3.5
		c-0.6-0.4-1.7-0.6-3.1-0.8c-1.4-0.2-3-0.3-4.6-0.5c-1.7-0.1-3.2-0.2-4.7-0.3c-1.5,0-2.5-0.1-3-0.2c-0.7-0.2-1.7-0.3-2.8-0.3
		c-1.1,0-1.9,0.6-2.4,1.8c-0.2,0.7-0.3,1.4-0.5,2c-0.1,0.6-0.3,1.3-0.5,2c-0.2,1.3-0.4,2.6-0.6,3.9c-0.2,1.3-0.5,2.7-0.8,3.9
		c-0.1,0.5-0.2,0.9-0.3,1.5c-0.1,0.5-0.3,1-0.6,1.5c-1.3,3.3-3.6,5-6.8,5c-1.4,0-2.6-0.1-3.7-0.4c-1.3-0.3-2.3-0.8-3.1-1.5
		c-0.8-0.7-1.3-1.8-1.5-3c-0.2-1-0.3-2-0.3-3c0-1-0.1-2-0.1-3c0.1-1.5,0.3-3.7,0.5-6.6c0.2-2.9,0.5-5.9,0.7-9
		c0.2-3.1,0.4-5.9,0.6-8.5C188.9,204.8,189.1,203.1,189.2,202.2z"/>
</g>
<g class="st0">
	<path class="st1" d="M318,262.1c-0.9,1.6-2.1,3.5-3.4,5.7c-1.3,2.2-2.6,4-3.7,5.3c-2.8,3.3-5.9,6-9.4,8c-3,1.8-6.1,2.2-9.1,1.4
		c-3-0.8-5.2-2.3-6.4-4.4c-1.2-2.1-1.9-4.7-2.2-7.6c-0.1-0.5-0.2-1-0.2-1.5c0-0.6-0.1-1.2-0.2-1.9c-0.6,0.6-1.1,1.2-1.5,1.7
		c-0.5,0.5-0.8,0.9-1.1,1.4c-0.8,1.2-1.9,2.4-3.2,3.7c-1.3,1.2-2.7,2.4-4.1,3.3c-1.5,1-3,1.8-4.6,2.4c-1.6,0.6-3,0.9-4.4,0.8
		c-2.3-0.1-4.2-0.8-5.7-2.2c-1.5-1.4-2.6-3-3.5-5c-0.9-2.2-1.5-4.7-1.6-7.4c-0.1-2.7,0-5.5,0.4-8.4c0.4-2.9,1.1-5.7,2-8.5
		c0.9-2.8,2-5.5,3.3-8c2.6-5.3,6.1-10.2,10.4-14.6c4.4-4.4,9.4-7.6,15-9.7c3.5-1.3,6.6-1.7,9.4-1.2c2.8,0.5,5.3,1.7,7.6,3.5
		c0.9,0.7,1.6,1.2,2,1.5c0.4,0.2,1.1-0.2,2.1-1.3c0.8-0.8,1.6-1.7,2.4-2.6c0.7-0.9,1.6-1.7,2.5-2.4c1.7-1.4,3.3-2,5-1.8
		c1.7,0.2,2.7,1.2,3,3c1.2,5.3,1,10.4-0.5,15.4c-1.5,5-3.8,10.2-6.7,15.4c-0.9,1.6-1.9,3.2-2.8,5c-1,1.8-1.9,3.6-2.7,5.5
		c-0.8,1.9-1.5,3.8-2.1,5.6c-0.6,1.8-0.7,3.6-0.6,5.3c0.6-0.1,1.3-0.3,1.9-0.7c0.6-0.4,1.2-0.8,1.8-1.2c0.6-0.5,1.2-1.2,2.1-2.2
		c0.8-1,1.7-2.1,2.6-3.2c0.9-1.1,1.6-2.1,2.3-3c0.6-0.9,1.1-1.4,1.2-1.6c0.6-0.8,1.1-1.2,1.7-1c0.6,0.2,1,0.6,1.4,1.4
		c0.4,0.7,0.5,1.7,0.4,2.8C318.9,259.9,318.6,261,318,262.1z M292.6,236.8c0.5-1,0.9-2,1.2-3c0.4-1,0.8-2,1.2-3
		c0.5-1.6,0.8-3.1,1-4.7c0.2-1.6-0.4-2.8-1.8-3.6c-0.6-0.5-1.4-0.6-2.4-0.6c-0.9,0.1-1.9,0.4-2.8,0.8c-1,0.5-1.9,1-2.8,1.7
		c-0.9,0.6-1.5,1.3-2,1.9c-1.8,2.1-3.2,4.3-4.5,6.6c-1.2,2.3-2.5,4.7-3.7,7.1c-3.3,7.3-6,14.5-8.2,21.7c-0.2,0.6-0.4,1.2-0.6,2
		c-0.2,0.8-0.4,1.6-0.5,2.4c-0.1,0.8,0,1.6,0.1,2.3c0.2,0.7,0.6,1.1,1.4,1.3c0.8,0.3,1.7,0,2.7-0.7c1-0.7,1.9-1.7,2.8-2.8
		c0.9-1.1,1.8-2.3,2.6-3.5c0.8-1.2,1.4-2.1,1.9-2.6c3-3.6,5.7-7.4,8-11.3C288.7,245,290.7,240.9,292.6,236.8z"/>
</g>
<g class="st0">
	<path class="st1" d="M353.7,199.2l0.3,0.8c0.3,0.6,0.6,1.2,1,1.6s0.8,0.9,1.2,1.3c3.4,3.1,6.3,6.5,8.6,10.1c1,1.6,1.9,3.2,2.6,4.8
		c0.7,1.6,1.2,3.4,1.2,5.3c0.1,2.1-0.4,5-1.6,8.6c-1.2,3.6-2.5,7.3-4.1,11.2c-1.6,3.9-3.2,7.6-4.8,11.1c-1.6,3.5-2.8,6.3-3.7,8.4
		c-0.7,1.7-1.4,3.2-1.9,4.7c-0.5,1.5-0.9,3-1.3,4.7c0,0.3,0,0.7,0,1.3c0,0.6,0.1,0.9,0.3,1c0.3,0,0.9-0.3,1.7-0.8
		c0.9-0.5,2.1-1.7,3.5-3.5c1.2-1.5,2.4-3,3.6-4.6c1.2-1.6,2.3-3.1,3.4-4.6c1.1-1.5,2-2.8,2.8-4c0.8-1.2,1.4-2.2,1.7-2.9
		c0.9,0.6,1.8,1.4,2.7,2.6c0.9,1.2,1,2.4,0.5,3.8c-0.2,0.3-0.6,1-1.1,2.1c-0.6,1.2-1.3,2.6-2.2,4.3c-0.9,1.7-2,3.6-3.3,5.6
		c-1.3,2-2.6,4-4,5.9c-1.4,1.8-2.7,3.4-3.9,4.6c-1.2,1.2-3,2-5.2,2.5c-1.1,0.3-2.2,0.3-3.4,0.1c-1.2-0.2-2.2-0.5-3.2-1
		c-2.5-1.2-4.5-3-6-5.3c-1.5-2.4-2.5-5-2.8-8c-0.4-2.9-0.2-5.9,0.6-9c0.7-3,1.8-6,3.3-9c0.6-1.1,1.6-3,2.8-5.7
		c1.2-2.7,2.5-5.5,3.8-8.6c1.3-3,2.6-5.9,3.8-8.6c1.2-2.7,2-4.6,2.4-5.7c1-2.3,1.5-4.6,1.4-7c-0.1-2.4-0.9-4.2-2.5-5.5
		c-0.5-0.4-0.8-0.5-1-0.4c-0.6,0.2-0.9,0.6-1.1,1.4c-0.8,2.2-2.2,5.3-4.1,9.3c-1.9,4-4.2,8.3-6.8,12.9c-2.7,4.7-5.6,9.4-8.8,14.3
		c-3.2,4.9-6.5,9.3-10,13.2c-3.5,3.9-6.9,7.1-10.3,9.7c-3.4,2.5-6.6,3.8-9.5,3.8c-1,0-1.9-0.3-2.6-1c-0.7-0.6-1.2-1.4-1.6-2.1
		c-0.4-0.8-0.5-1.5-0.3-2.3c0.1-0.7,0.6-1.2,1.3-1.5c4.4-1.4,8.5-3.6,12.4-6.6c3.8-3,7.4-6.4,10.6-10.2c3.2-3.8,6.1-7.8,8.6-12
		c2.5-4.2,4.8-8.2,6.7-12.1c1.9-3.9,3.5-7.4,4.6-10.4c1.2-3.1,2-5.5,2.6-7.1c0.4-1,0.7-2.1,1-3.2c0.3-1.2,0.3-2.2,0.1-3.2
		c-0.2-1.8-0.8-3.3-1.9-4.6c-1.1-1.3-2.3-2.6-3.5-3.9c-1.9-2.1-3.3-4.6-4.1-7.5c-0.5-2.2-0.2-4.4,0.9-6.6c1.1-2.2,2.5-3.9,4.3-5.3
		c1.8-1.4,3.8-2.2,5.9-2.4c2.1-0.2,4,0.4,5.6,1.9c1.6,1.5,2.8,4.1,3.5,7.7C354.9,187.7,354.7,192.7,353.7,199.2z"/>
	<path class="st1" d="M406.8,263.3c0.6,0.5,0.8,1.3,0.7,2.5c-0.1,1.1-0.4,2.2-1,3.3c-0.6,1.1-1.3,2.2-2.1,3.2
		c-0.8,1.1-1.8,2-2.8,2.9c-1,0.9-1.9,1.7-2.8,2.4c-1.9,1.6-4.8,3-8.7,4.1c-3.7,1.2-6.6,1.4-8.7,0.6c-1.1-0.6-2-1.3-2.7-2.2
		c-0.7-0.9-1.2-2-1.6-3.2c-0.4-1.2-0.6-2.4-0.7-3.7c-0.1-1.3-0.1-2.6-0.1-3.9c0.5-4.1,1.4-8.2,2.8-12.3c1.4-4.1,2.7-8.2,3.9-12.3
		c0.8-2.3,1.7-5.2,2.7-8.6c1-3.4,2-6.9,3-10.5c1.1-3.6,2.1-7.1,3.1-10.4c1-3.4,2-6.2,2.9-8.5c-3.5,0-6.5-0.5-9-1.4
		c-4.2-1.5-7.2-3.3-8.8-5.4c-1.7-2.1-2.5-4.2-2.5-6.2c0-2,0.6-3.8,1.7-5.2c1.1-1.4,2.3-2.2,3.5-2.4c1.2-0.1,2,0,2.5,0.3
		c0.5,0.3,0.7,0.6,0.8,1c0,0.4,0,0.9-0.2,1.4c-0.2,0.5-0.3,0.9-0.3,1.2c-0.1,0.6,0,1.2,0.1,2c0.2,0.8,0.6,1.5,1.1,2.3
		c0.6,0.7,1.3,1.4,2.2,1.9c0.9,0.6,2,0.9,3.3,1c1.3,0.1,2.6,0.1,4.1,0.1c1.4,0,2.8-0.2,4.2-0.3c0.9-2.2,1.8-4,2.6-5.5
		c0.8-1.4,1.5-2.8,2.1-4c0.6-1.2,1.3-2.6,2-4c0.7-1.4,1.5-3.2,2.3-5.5c0.2-0.6,0.5-1.2,0.9-1.9s0.9-1.3,1.4-1.9c0.5-0.6,1-1,1.5-1.2
		c0.5-0.3,1-0.3,1.5,0c0.6,0.3,1,0.8,1.3,1.6c0.3,0.8,0.6,1.6,0.8,2.6c0.2,0.9,0.3,1.9,0.3,2.8c0,1,0.1,1.8,0.1,2.4
		c0.1,1.5,0.2,2.7,0.3,3.6c0.1,0.9,0.1,1.8,0.1,2.6c0,0.8-0.2,1.8-0.4,2.8c-0.2,1-0.6,2.3-1.2,3.7c3.7-1.1,7.3-2.3,10.7-3.5
		c3.5-1.2,6.7-2.4,9.7-3.4c3-1,5.6-1.8,7.9-2.5c2.3-0.6,4-0.9,5.3-0.8c2.8,0.4,4.7,1,5.9,1.9c1.2,0.9,1.8,1.9,1.9,3
		c0.1,1.2-0.2,2.4-0.9,3.6c-0.7,1.2-1.5,2.4-2.4,3.5c-0.9,1.1-1.8,2-2.8,2.7c-0.9,0.7-1.5,1.1-1.8,1.1c-0.7,0.1-1.2-0.2-1.5-0.8
		c-0.2-0.6-0.4-1.3-0.5-2.1c-0.1-0.7-0.2-1.5-0.4-2.1c-0.2-0.7-0.6-1-1.2-1c-0.5,0-1.6,0.3-3.5,1c-1.8,0.7-4.1,1.5-6.9,2.5
		c-2.8,1-5.9,2-9.3,3.1s-7,2.1-10.7,3c-0.3,0.7-0.7,2-1.2,3.7c-0.6,1.7-1.1,3.6-1.7,5.7c-0.6,2.1-1.2,4.2-1.9,6.5
		c-0.6,2.3-1.2,4.3-1.8,6.2c-0.6,1.9-1,3.5-1.4,4.8c-0.4,1.3-0.6,2-0.7,2.2l-4.7,14.1c-0.7,2.4-1.5,4.8-2.3,7.1
		c-0.8,2.4-1.6,4.7-2.4,7.1c-0.5,1.5-1,3-1.7,4.4c-0.6,1.5-1.1,3-1.2,4.6c-0.1,0.6-0.1,1.2-0.1,1.8c0,0.6,0.1,1.1,0.2,1.7
		c0.3,0.8,0.5,1.2,0.8,1.2c0.2,0,0.8-0.3,1.6-0.9c1.2-0.8,2.3-1.8,3.2-2.8c0.9-1,1.9-2,2.9-3c0.3-0.4,0.7-0.9,1.3-1.7
		c0.6-0.7,1.2-1.4,1.9-2.1c0.6-0.6,1.3-1.2,1.9-1.5C405.7,263,406.3,263,406.8,263.3z"/>
	<path class="st1" d="M465.4,247.9c-0.8,3.4-1.8,6.8-3,10c-1.2,3.3-2.8,6.5-4.8,9.7c-1.1,1.9-2.6,3.9-4.4,5.7
		c-1.8,1.9-3.8,3.5-5.9,5c-2.1,1.4-4.3,2.6-6.6,3.5c-2.3,0.9-4.4,1.4-6.6,1.5c-3.9,0.2-7.1-0.3-9.8-1.6c-2.7-1.2-4.8-3-6.4-5.3
		c-1.6-2.3-2.7-5-3.2-8c-0.6-3-0.8-6.2-0.7-9.5c0.1-3.3,0.6-6.7,1.4-10.1c0.8-3.4,1.8-6.6,3.1-9.5c1.5-3.7,3.5-7.4,6.1-11.2
		c2.6-3.8,5.6-7.1,8.9-10c3.4-2.9,7-5.1,10.9-6.6c3.9-1.6,7.9-2,12-1.4c3.4,0.6,5.9,1.9,7.6,3.9s2.6,4.8,2.9,8.1
		c0.3,4.1,0.3,8.4,0.2,12.7C466.9,239.2,466.4,243.5,465.4,247.9z M425.8,254.4c-0.6,2.5-0.9,5-1,7.5c-0.1,2.5,0.1,4.9,0.6,7.2
		c0.1,0.7,0.4,1.7,0.8,2.8c0.5,1.2,1,2.1,1.7,3c0.6,0.8,1.4,1.3,2.4,1.4c0.9,0.1,1.9-0.6,3-2.2c2.7-3.8,5-7.7,6.9-11.8
		c1.9-4.1,3.5-8.2,4.7-12.3c1.3-4.1,2.4-8.3,3.2-12.6c0.2-0.8,0.4-1.7,0.6-2.6c0.2-0.9,0.3-1.9,0.3-2.8c0-1,0-1.9-0.1-2.7
		c-0.1-0.8-0.4-1.6-0.8-2.2c-0.6-0.7-1.6-0.9-2.9-0.6c-1.3,0.4-2.5,0.9-3.7,1.5c-1.2,0.6-2.3,1.4-3.2,2.4c-3.1,3.2-5.8,6.9-7.9,11.1
		C428.2,245.6,426.7,249.9,425.8,254.4z"/>
	<path class="st1" d="M488.5,233.8c-0.7,1.3-1.1,2.7-1,4.1c0,1.5,0.2,2.8,0.5,4c0.4,3,1,5.8,1.9,8.4c0.9,2.7,1.8,5.3,2.7,8
		c1,2.6,1.6,5.5,1.8,8.6c0.2,3.2-0.6,6.2-2.4,9.2c-1.6,2.6-3.8,4.6-6.6,6c-2.9,1.4-5.6,2.2-8.3,2.3c-3,0.2-5.9-0.2-8.4-1.2
		c-2.6-1-4.6-2.7-5.9-5.2c-0.8-1.2-1.2-2.4-1-3.7c0.1-0.7,0.3-1.6,0.8-2.6c0.4-1,0.9-2,1.5-3c0.6-1,1.2-2,1.7-2.9
		c0.6-0.9,1.1-1.7,1.7-2.4c0.5-0.6,1-1.2,1.6-1.7c0.6-0.5,1.3-0.6,2-0.6c0.8,0.2,1.4,0.7,1.7,1.5c0.3,0.8,0.3,1.7,0,2.6
		c-0.3,0.9-0.4,1.8-0.4,2.7c-0.1,0.8-0.1,1.7,0.1,2.6c0.1,0.9,0.4,1.7,0.9,2.2c0.6,0.6,1.1,0.9,1.6,0.9c0.5,0,1-0.3,1.6-0.6
		c0.6-0.4,1-0.9,1.5-1.5c0.4-0.6,0.8-1.2,1.2-1.7c1.5-2.4,2.1-4.6,2-6.6c-0.1-2-0.6-4.1-1.5-6.2c-0.6-1.6-1.1-3.2-1.6-4.8
		c-0.5-1.7-1.1-3.3-1.9-4.8c-0.6-1.8-1.2-3.6-1.7-5.7c-0.5-2-0.9-4.1-1.1-6.2c-0.2-2.1-0.2-4.2,0.1-6.4c0.3-2.1,1-4.2,2-6.4
		c1.3-2.6,3-4.7,5-6.5c2.1-1.8,4.4-3.1,6.8-4.1c2.5-1,5-1.5,7.5-1.7c2.5-0.1,4.9,0.1,7.2,0.8c1.5,0.5,3,1.1,4.6,1.9
		c1.6,0.8,3,1.7,4.2,2.8s2.2,2.4,2.9,3.9c0.7,1.5,0.9,3.1,0.6,5c-0.8,4.1-2.6,7.6-5.3,10.4c-2.7,2.8-6.3,4.3-10.9,4.4
		c-2.7,0-4.6-0.6-5.8-1.7C491.1,236.9,489.8,235.5,488.5,233.8z M489.6,231c0.6,0.9,1.4,1.4,2.4,1.4c0.9,0,1.9-0.2,2.8-0.7
		c1-0.5,1.8-1.1,2.6-2c0.8-0.9,1.5-1.8,2-2.7c0.6-1.1,1.2-2.6,1.7-4.4c0.5-1.8,0.3-3.2-0.4-4.2c-0.4-0.7-1-1-1.9-0.9
		c-0.9,0.1-1.9,0.5-2.9,1c-1,0.6-1.9,1.2-2.8,1.9c-0.8,0.7-1.4,1.4-1.8,1.9c-0.8,1.1-1.5,2.5-2,4.3c-0.5,1.8-0.4,3.1,0.2,4
		C489.6,230.8,489.6,230.9,489.6,231z"/>
	<path class="st1" d="M538.7,267.6c0,0.2,0,0.4,0.1,0.6c2.2,1.5,4.7,2.7,7.4,3.5c2.7,0.9,5.4,1.7,8.1,2.4c0.7,0.2,1.5,0.3,2.1,0.2
		c0.7,0,1.4-0.3,2.1-0.9c0.9-0.7,1.6-1.5,2.1-2.4c0.5-0.9,1.2-1.7,2-2.4c1.5-1.3,3.1-1.9,4.9-1.7c1.8,0.1,3.2,0.9,4.2,2.1
		c0.9,1.3,1.4,2.8,1.4,4.6c0,1.8-0.3,3.5-0.8,5.1c-0.7,2.5-1.8,4.5-3.2,6.1c-1.4,1.6-3.3,2.9-5.7,4c-4.2,1.8-8.1,2.4-11.5,1.7
		c-3.4-0.7-6.5-2.2-9.3-4.6c-2-1.8-3.9-3.8-5.7-5.7c-1.8-2-3.8-3.7-6.1-5.2c-1,1.5-2.4,2.7-4,3.7s-3.3,1.5-4.8,1.7
		c-1.7,0.2-3.2,0-4.7-0.5c-1.5-0.5-2.7-1.4-3.7-2.6c-0.8-1.1-1.2-2.5-1.2-4.2c0-1.7,0.6-3.2,1.9-4.5c0.6-0.7,1.3-1.3,2.2-1.8
		c0.9-0.5,1.8-0.9,2.6-1.4c3-1.8,5.9-4.4,8.6-7.5c2.7-3.2,5.2-6.1,7.4-8.8c2.7-3.5,5.4-6.8,8.1-10c2.7-3.2,5-5.9,7-8.2
		c0.6-0.9,1.5-2,2.7-3.1c1.2-1.2,2.1-2.3,2.8-3.4c0.3-0.5,0.1-0.8-0.6-1c-0.7-0.2-1.6-0.4-2.6-0.5c-1.1-0.1-2.1-0.1-3-0.1
		s-1.6,0-2,0c-1.6,0.1-3.1,0.4-4.7,1c-1.6,0.6-2.8,1.7-3.6,3.2c-0.7,1.3-1.6,2.5-2.5,3.7c-0.9,1.2-1.9,2.3-3,3.3
		c-1.3,1-2.6,1.9-3.9,2.6c-1.3,0.7-2.7,1.1-3.9,1.3c-1.7,0.2-3.2,0-4.6-0.6c-1.4-0.6-2.6-1.3-3.7-2.1c-0.6-0.5-1.2-1.1-1.7-1.8
		c-0.5-0.7-0.7-1.5-0.8-2.4c-0.3-1.1-0.2-2.2,0.3-3.3c0.5-1.1,1.2-2.1,2-3c1.8-1.9,4-3.5,6.4-4.7c2.4-1.2,5-2.2,7.7-2.9
		c2.7-0.7,5.4-1.3,8-1.6c2.6-0.3,5-0.5,7.1-0.6c3.1-0.2,6.2-0.2,9.3,0c3.1,0.2,6.2-0.1,9.3-0.8c0.6-0.2,1.3-0.3,1.9-0.5
		c0.6-0.1,1.2-0.2,1.7-0.1c1.3,0.1,2.3,0.7,3.1,1.8c0.8,1.1,1.2,2.3,1.2,3.6c0.1,1.4-0.1,2.8-0.7,4.1c-0.6,1.4-1.2,2.7-1.9,4
		c-2.1,3.9-4.6,7.5-7.4,11c-2.8,3.5-5.7,6.8-8.6,10c-0.4,0.5-1.4,1.6-3,3.4s-3.4,3.8-5.3,5.9c-1.8,2.2-3.5,4.2-5,6.2
		C539.8,265.4,538.9,266.8,538.7,267.6z"/>
</g>
<g class="st0">
	<path class="st2" d="M136.9,163.4c1.1,0,2.1,0,2.9,0c0.8,0,1.6,0.2,2.5,0.4c0.1,0.1,0.3,0.1,0.5,0.1c0.2,0,0.4,0,0.6,0.1
		c0.8,0.1,1.6,0.3,2.4,0.4c0.7,0.1,1.5,0.4,2.1,0.7c1.6,0.8,2.9,1.8,4.1,2.7c0.2,0.2,0.4,0.4,0.6,0.6c0.2,0.2,0.4,0.5,0.5,0.8
		c0.2,0.3,0.4,0.7,0.5,1c0.2,0.3,0.4,0.7,0.6,1c0.1,0.1,0.1,0.4,0.2,0.8c0.1,0.3,0.1,0.5,0,0.8c0,0.3,0,0.6,0,0.9
		c0,0.5-0.1,1-0.4,1.5c-0.3,0.5-0.6,1-0.9,1.6c-0.3,0.5-0.6,1-1.1,1.6c-0.5,0.6-0.9,1.2-1.5,1.8c-0.5,0.3-0.8,0.6-1.1,0.9
		c-0.3,0.3-0.6,0.6-1,0.9c-0.8,0.7-1.6,1.4-2.3,2c-0.7,0.6-1.4,1.3-2.2,1.9c-2.5,2.2-5.2,4-7.9,5.4c-0.1,0.1-0.2,0.1-0.3,0.2
		c-0.1,0.1-0.2,0.2-0.4,0.3c-0.1,0.1-0.1,0.2-0.2,0.3c-0.1,0.1-0.1,0.2,0,0.3c0.1,0.2,0.3,0.4,0.4,0.7c0.2,0.3,0.4,0.6,0.6,0.9
		c0.2,0.3,0.4,0.6,0.7,0.9c0.3,0.5,0.8,0.9,1.5,1.2c0.7,0.4,1.3,0.8,2,1.3c0.6,0.3,1.2,0.7,1.8,1.1c0.6,0.4,1.2,0.8,1.8,1.1
		c0.5,0.3,0.8,0.4,1.1,0.5c0.1,0.1,0.3,0,0.6-0.2c0.1-0.1,0.3-0.3,0.4-0.5c0.2-0.2,0.3-0.4,0.4-0.6l5.5-7.6c0.3-0.3,0.5-0.7,0.8-1
		c0.3-0.4,0.5-0.7,0.8-1c0.1-0.3,0.4-0.5,0.8-0.6c0.2-0.2,0.5-0.3,0.8-0.2c0.4,0.1,0.6,0.3,0.7,0.4c1,1,1.3,2.2,1.1,3.5
		c-0.3,1-0.7,1.9-1.2,2.7c-0.4,0.7-0.8,1.3-1.1,1.9c-0.3,0.6-0.7,1.3-1.1,1.9c-0.1,0.3-0.3,0.7-0.4,1c-0.2,0.3-0.2,0.7-0.1,1
		c0.1,0.1,0,0.3,0,0.4c-0.1,0.1-0.2,0.3-0.2,0.4c-0.4,0.7-0.7,1.1-0.8,1.4c0,0.3,0,0.5,0.1,0.6c0.1,0.3,0.4,0.4,0.7,0.5
		c0.7,0.3,1.3,0.6,1.8,0.9c0.6,0.3,1.2,0.6,1.8,0.9c0.7,0.3,1.4,0.6,2.1,0.9c0.7,0.3,1.4,0.7,2,1.1c0.3,0.3,0.7,0.5,1,0.7
		c0.4,0.2,0.7,0.5,0.9,0.8c0.5,0.3,0.5,0.8,0.2,1.5c-0.5,0.8-1.2,1.4-2.2,1.8c-1.4,0.7-2.7,1-3.9,0.9c-1.2,0-2.4-0.3-3.6-0.8
		c-0.5-0.2-0.9-0.4-1.3-0.6c-0.4-0.2-0.9-0.5-1.3-0.7c-0.3-0.2-0.6-0.4-0.9-0.6c-0.4-0.2-0.7-0.4-1-0.6c-0.4-0.1-0.8-0.1-1.1,0.2
		c-0.7,0.8-1.4,1.5-2.2,2.1c-0.8,0.6-1.6,1.3-2.4,2c-0.4,0.3-0.8,0.7-1.2,1c-0.4,0.3-0.8,0.7-1.2,1c-0.1,0.1-0.3,0.2-0.5,0.3
		c-0.2,0.1-0.4,0.2-0.5,0.2c-0.8,0.4-1.7,0.8-2.6,1.4c-0.9,0.5-1.7,1-2.6,1.4c-0.5,0.2-0.9,0.4-1.3,0.5c-0.4,0.2-0.8,0.2-1.2,0
		c-0.4,0-0.7,0-1,0.1c-1,0.3-1.9,0.5-2.8,0.4c-0.9,0-1.8,0-2.7,0c-0.9,0-1.8,0-2.6-0.1c-0.8-0.1-1.6-0.2-2.4-0.3
		c-1-0.2-2-0.5-2.7-0.9c-0.8-0.4-1.5-0.9-2.2-1.5c-0.7-0.7-1.4-1.4-2.2-2c-0.5-0.4-0.8-0.9-0.9-1.5c-0.1-0.6-0.3-1.2-0.4-1.8
		c-0.1-0.6-0.3-1.2-0.4-1.8c-0.4-1.3-0.3-2.6,0.2-3.9c0.2-0.6,0.4-1.2,0.6-1.7c0.2-0.6,0.5-1.1,0.7-1.6c1.2-2.1,2.5-4,4.1-5.9
		c1.6-1.8,3.3-3.5,5.2-5c0.4-0.3,0.8-0.6,1.2-0.9c0.4-0.3,0.8-0.6,1.2-0.9c0.5-0.3,0.6-0.7,0.4-1.3c-0.3-0.5-0.5-1-0.8-1.6
		c-0.3-0.5-0.6-1-0.8-1.6c-0.6-1.2-1-2.5-1.2-3.9c-0.2-1.3-0.3-2.8-0.2-4.3c0.1-0.7,0.3-1.4,0.5-2.2c0.4-1.1,0.8-2.2,1.2-3.2
		c0.4-1,0.9-2.1,1.4-3.2c0.5-1,1.1-1.8,1.8-2.6c0.7-0.7,1.6-1.5,2.5-2.1c0.5-0.3,0.9-0.5,1.4-0.6c0.5-0.1,1-0.2,1.5-0.3
		c1-0.2,1.9-0.4,2.7-0.5C135.5,163.3,136.2,163.3,136.9,163.4z M140.3,204.8c0-0.3-0.1-0.5-0.3-0.8c-0.5-0.3-0.9-0.7-1.4-1
		c-0.5-0.4-0.9-0.7-1.5-1c-1.4-0.9-2.8-1.9-4.2-2.8c-1.4-1-2.6-2.1-3.6-3.4c0-0.1,0-0.1-0.1-0.1c-0.3-0.3-0.5-0.5-0.6-0.5
		c-0.2,0-0.4,0.1-0.8,0.4c-0.3,0.2-0.5,0.4-0.7,0.6c-0.2,0.2-0.5,0.4-0.7,0.7c-0.4,0.3-0.8,0.6-1.1,0.9c-0.4,0.3-0.6,0.6-0.8,1
		c-0.8,1.2-1.6,2.3-2.4,3.4c-0.8,1.1-1.5,2.2-2.2,3.4c-0.3,0.5-0.5,0.9-0.7,1.3c-0.2,0.4-0.4,0.9-0.7,1.3c-0.3,0.7-0.4,1.4-0.3,2.2
		l1,3.8c0.1,0.5,0.5,0.7,1,0.7c0.8,0.1,1.6,0,2.5-0.1c0.9-0.2,1.8-0.3,2.7-0.4c0.3-0.1,0.7-0.2,1.1-0.3c0.4-0.1,0.8-0.2,1.2-0.3
		c1.1-0.4,2.1-0.9,3.1-1.4c0.9-0.6,1.9-1.2,2.9-1.9c0.6-0.5,1.2-0.9,1.7-1.4c0.6-0.5,1.2-0.9,1.8-1.4
		C138.3,206.6,139.4,205.7,140.3,204.8z M131.1,176.9L131.1,176.9l-0.3,1c-0.2,0.8-0.3,1.6-0.3,2.4c0,0.8,0,1.5,0.2,2.2
		c0.2,0.4,0.3,0.8,0.3,1.4c0.1,0.4,0.2,0.7,0.4,1c0.2,0.3,0.5,0.5,0.7,0.8c0.1,0.1,0.3,0.1,0.6,0l1.1-0.6c2.3-1.8,4.4-3.6,6.4-5.4
		c1-0.9,1.9-1.8,2.8-2.8c0.9-0.9,1.7-1.9,2.5-3c0.3-0.3,0.5-0.7,0.8-1.1c0.3-0.4,0.4-0.8,0.5-1.2c0.1-0.3,0.1-0.7,0-1.1
		c-0.1-0.9-0.6-1.6-1.3-2.1c-0.8-0.5-1.6-0.7-2.5-0.5c-0.5,0.1-1,0.1-1.5,0.1c-0.5,0-1,0.1-1.6,0.2c-1.1,0.1-2.2,0.4-3.2,0.7
		c-0.7,0.2-1.3,0.6-1.9,1.3l-1.6,1.8c-0.2,0.3-0.4,0.6-0.5,0.8c-0.2,0.2-0.3,0.5-0.5,0.7c-0.2,0.4-0.4,0.8-0.5,1.1L131.1,176.9z"/>
</g>
<g class="st0">
	<path class="st1" d="M1.7,128.9c2-1.8,3.9-3.6,5.7-5.3c1.8-1.7,3.3-3.5,4.8-5.3c1.4-1.8,2.6-3.7,3.7-5.8c1-2.1,1.8-4.4,2.2-7.1
		c1.2-6.7,2.6-13.4,4.3-20.1c1.7-6.7,3.3-13.3,4.8-20c1.7-6.6,3.2-13.2,4.6-19.7c1.4-6.5,2.8-13.1,4.1-19.7c0.6-3.2,1.3-6.4,2.1-9.5
		c0.7-3.1,1.4-6.3,2.1-9.5c0.3-1,0.6-2,1-3c0.4-1,0.9-1.8,1.5-2.4c0.6-0.6,1.3-1.1,2.1-1.3c0.8-0.2,1.8-0.2,3,0.2
		c3.2,1.2,5.7,3.2,7.5,5.9c1.8,2.8,3.3,5.6,4.7,8.4c3.2,6.6,5.7,13.6,7.5,20.7c1.8,7.2,3.4,14.5,4.9,22c0.9,4.5,1.9,9,3,13.4
		c1.1,4.4,2.3,8.9,3.5,13.3c0.4,0.7,0.8,1.6,1.2,2.6c0.5,1,1.3,1.1,2.5,0.5c0.5-0.3,0.9-0.8,1.5-1.6c0.5-0.8,0.9-1.6,1.3-2.5
		c0.4-0.9,0.7-1.7,1-2.6c0.3-0.8,0.5-1.5,0.7-1.9c1.5-3.3,2.8-6.7,3.9-10c1.2-3.4,2.3-6.7,3.5-10c2.3-6.8,4.7-13.6,7.1-20.3
		c2.4-6.7,5.5-13.3,9.1-19.8c1.2-1.8,2.5-3.6,3.8-5.4c1.3-1.8,2.9-3.1,4.8-4c1.5-0.7,2.9-1.1,4.4-1.1c1.5,0,2.9,0.3,4.1,0.8
		c1.3,0.6,2.4,1.3,3.5,2.3c1,1,1.8,2.1,2.4,3.4c1,2.5,1.4,5.3,1.2,8.3c-0.2,3-0.6,6-1.2,9c-1.4,8.4-3,16.8-4.8,25.2
		c-1.8,8.4-3.8,16.8-5.9,25.2c-1.1,4.2-2.2,8.5-3.2,12.7c-1,4.2-1.8,8.4-2.4,12.7c-0.5,4.2-0.6,8.4-0.3,12.6c0.2,4.1,1.1,8,2.6,11.6
		c0.5,1.1,0.8,2.3,1.1,3.7c0.3,1.3-0.1,2.6-1.1,3.8c-0.6,0.7-1.4,1.2-2.2,1.5c-0.8,0.3-1.7,0.5-2.5,0.7c-2.7,0.6-5.3,1-8,1.2
		c-2.6,0.1-5-0.4-7-1.7c-2.6-1.6-4.2-3.9-4.9-7c-0.7-3.1-0.9-6.2-0.8-9.5c0.3-5,0.9-10,1.9-15.1c1-5.1,2.1-10.1,3.3-15.1
		c3.1-12.4,6.6-24.5,10.3-36.6c3.7-12,7.5-24.1,11.3-36.3c0.3-0.8,0.4-1.6,0.3-2.4c0-0.8-0.4-1.3-1.2-1.5c-0.6-0.2-1.3,0.1-2,0.8
		c-0.7,0.7-1.2,1.5-1.6,2.2c-2.8,5.8-5.2,11.6-7.3,17.5c-2.1,5.9-4.3,11.8-6.5,17.8c-2,5.8-4.2,11.5-6.5,17.1
		c-2.3,5.6-4.7,11.3-7.2,17.1c-0.9,2.1-1.9,4.3-2.8,6.5c-1,2.2-2.2,4.3-3.7,6.4c-1.9,2.4-4.2,3.9-6.9,4.4c-2.7,0.6-5-0.1-7.1-1.9
		c-1.6-1.4-2.8-3.1-3.7-5.2c-0.9-2.1-1.7-4.3-2.3-6.6c-0.6-2.4-1.1-4.7-1.6-7.1c-0.5-2.4-0.9-4.5-1.4-6.6c-1.1-5.1-2.1-10.3-3-15.6
		c-0.9-5.3-2-10.4-3.4-15.4c-0.2-0.4-0.4-0.8-0.6-1.4c-0.2-0.6-0.4-1.1-0.6-1.7c-0.1-0.6-0.3-1.1-0.4-1.7s-0.1-1.1,0.1-1.7
		c-0.4,1-0.7,1.8-0.9,2.4c-0.2,0.6-0.4,1.2-0.5,1.7c-0.3,1-0.5,2-0.7,3c-0.2,1-0.4,2-0.6,3c-1.2,5.5-2.4,11.1-3.6,16.7
		c-1.2,5.6-2.4,11.2-3.5,16.8c-1.1,5.4-2.3,10.9-3.5,16.3c-1.2,5.4-2.3,10.9-3.1,16.5c-0.5,2.7-1.5,5.2-3,7.5
		c-1.5,2.3-3.4,4.3-5.5,5.9c-2.2,1.6-4.6,2.8-7.2,3.7c-2.6,0.8-5.2,1.2-7.8,1c-0.3,0-1.1-0.2-2.6-0.7c-1.4-0.5-2.9-1.1-4.4-1.8
		c-1.5-0.7-2.7-1.6-3.5-2.5C0.4,130.9,0.6,130,1.7,128.9z"/>
</g>
<g class="st0">
	<path class="st1" d="M184.3,114.6c-0.9,1.6-2.1,3.5-3.4,5.7c-1.3,2.2-2.6,4-3.7,5.3c-2.8,3.3-5.9,6-9.4,8c-3,1.8-6.1,2.2-9.1,1.4
		c-3-0.8-5.2-2.3-6.4-4.4c-1.2-2.1-1.9-4.7-2.2-7.6c-0.1-0.5-0.2-1-0.2-1.5c0-0.6-0.1-1.2-0.2-1.9c-0.6,0.6-1.1,1.2-1.5,1.7
		c-0.5,0.5-0.8,0.9-1.1,1.4c-0.8,1.2-1.9,2.4-3.2,3.7c-1.3,1.2-2.7,2.4-4.1,3.3c-1.5,1-3,1.8-4.6,2.4c-1.6,0.6-3,0.9-4.4,0.8
		c-2.3-0.1-4.2-0.8-5.7-2.2c-1.5-1.4-2.6-3-3.5-5c-0.9-2.2-1.5-4.7-1.6-7.4c-0.1-2.7,0-5.5,0.4-8.4c0.4-2.9,1.1-5.7,2-8.5
		c0.9-2.8,2-5.5,3.3-8c2.6-5.3,6.1-10.2,10.4-14.6c4.4-4.4,9.4-7.6,15-9.7c3.5-1.3,6.6-1.7,9.4-1.2c2.8,0.5,5.3,1.7,7.6,3.5
		c0.9,0.7,1.6,1.2,2,1.5c0.4,0.2,1.1-0.2,2.1-1.3c0.8-0.8,1.6-1.7,2.4-2.6c0.7-0.9,1.6-1.7,2.5-2.4c1.7-1.4,3.3-2,5-1.8
		c1.7,0.2,2.7,1.2,3,3c1.2,5.3,1,10.4-0.5,15.4c-1.5,5-3.8,10.2-6.7,15.4c-0.9,1.6-1.9,3.2-2.8,5c-1,1.8-1.9,3.6-2.7,5.5
		c-0.8,1.9-1.5,3.8-2.1,5.6c-0.6,1.8-0.7,3.6-0.6,5.3c0.6-0.1,1.3-0.3,1.9-0.7c0.6-0.4,1.2-0.8,1.8-1.2c0.6-0.5,1.2-1.2,2.1-2.2
		c0.8-1,1.7-2.1,2.6-3.2c0.9-1.1,1.6-2.1,2.3-3c0.6-0.9,1.1-1.4,1.2-1.6c0.6-0.8,1.1-1.2,1.7-1c0.6,0.2,1,0.6,1.4,1.4
		c0.4,0.7,0.5,1.7,0.4,2.8C185.2,112.3,184.9,113.5,184.3,114.6z M158.9,89.3c0.5-1,0.9-2,1.2-3c0.4-1,0.8-2,1.2-3
		c0.5-1.6,0.8-3.1,1-4.7c0.2-1.6-0.4-2.8-1.8-3.6c-0.6-0.5-1.4-0.6-2.4-0.6c-0.9,0.1-1.9,0.4-2.8,0.8c-1,0.5-1.9,1-2.8,1.7
		c-0.9,0.6-1.5,1.3-2,1.9c-1.8,2.1-3.2,4.3-4.5,6.6c-1.2,2.3-2.5,4.7-3.7,7.1c-3.3,7.3-6,14.5-8.2,21.7c-0.2,0.6-0.4,1.2-0.6,2
		c-0.2,0.8-0.4,1.6-0.5,2.4c-0.1,0.8,0,1.6,0.1,2.3c0.2,0.7,0.6,1.1,1.4,1.3c0.8,0.3,1.7,0,2.7-0.7c1-0.7,1.9-1.7,2.8-2.8
		c0.9-1.1,1.8-2.3,2.6-3.5c0.8-1.2,1.4-2.1,1.9-2.6c3-3.6,5.7-7.4,8-11.3C155,97.5,157,93.4,158.9,89.3z"/>
</g>
<g class="st0">
	<path class="st1" d="M220,51.6l0.3,0.8c0.3,0.6,0.6,1.2,1,1.6c0.4,0.4,0.8,0.9,1.2,1.3c3.4,3.1,6.3,6.5,8.6,10.1
		c1,1.6,1.9,3.2,2.6,4.8c0.7,1.6,1.2,3.4,1.2,5.3c0.1,2.1-0.4,5-1.6,8.6c-1.2,3.6-2.5,7.3-4.1,11.2c-1.6,3.9-3.2,7.6-4.8,11.1
		c-1.6,3.5-2.8,6.3-3.7,8.4c-0.7,1.7-1.4,3.2-1.9,4.7c-0.5,1.5-0.9,3-1.3,4.7c0,0.3,0,0.7,0,1.3c0,0.6,0.1,0.9,0.3,1
		c0.3,0,0.9-0.3,1.7-0.8c0.9-0.5,2.1-1.7,3.5-3.5c1.2-1.5,2.4-3,3.6-4.6c1.2-1.6,2.3-3.1,3.4-4.6c1.1-1.5,2-2.8,2.8-4
		c0.8-1.2,1.4-2.2,1.7-2.9c0.9,0.6,1.8,1.4,2.7,2.6c0.9,1.2,1,2.4,0.5,3.8c-0.2,0.3-0.6,1-1.1,2.1c-0.6,1.2-1.3,2.6-2.2,4.3
		c-0.9,1.7-2,3.6-3.3,5.6c-1.3,2-2.6,4-4,5.9c-1.4,1.8-2.7,3.4-3.9,4.6s-3,2-5.2,2.5c-1.1,0.3-2.2,0.3-3.4,0.1
		c-1.2-0.2-2.2-0.5-3.2-1c-2.5-1.2-4.5-3-6-5.3c-1.5-2.4-2.5-5-2.8-8c-0.4-2.9-0.2-5.9,0.6-9c0.7-3,1.8-6,3.3-9
		c0.6-1.1,1.6-3,2.8-5.7c1.2-2.7,2.5-5.5,3.8-8.6c1.3-3,2.6-5.9,3.8-8.6c1.2-2.7,2-4.6,2.4-5.7c1-2.3,1.5-4.6,1.4-7
		c-0.1-2.4-0.9-4.2-2.5-5.5c-0.5-0.4-0.8-0.5-1-0.4c-0.6,0.2-0.9,0.6-1.1,1.4c-0.8,2.2-2.2,5.3-4.1,9.3c-1.9,4-4.2,8.3-6.8,12.9
		c-2.7,4.7-5.6,9.4-8.8,14.3c-3.2,4.9-6.5,9.3-10,13.2c-3.5,3.9-6.9,7.1-10.3,9.7c-3.4,2.5-6.6,3.8-9.5,3.8c-1,0-1.9-0.3-2.6-1
		c-0.7-0.6-1.2-1.4-1.6-2.1c-0.4-0.8-0.5-1.5-0.3-2.3c0.1-0.7,0.6-1.2,1.3-1.5c4.4-1.4,8.5-3.6,12.4-6.6c3.8-3,7.4-6.4,10.6-10.2
		c3.2-3.8,6.1-7.8,8.6-12c2.5-4.2,4.8-8.2,6.7-12.1s3.5-7.4,4.6-10.4c1.2-3.1,2-5.5,2.6-7.1c0.4-1,0.7-2.1,1-3.2
		c0.3-1.2,0.3-2.2,0.1-3.2c-0.2-1.8-0.8-3.3-1.9-4.6c-1.1-1.3-2.3-2.6-3.5-3.9c-1.9-2.1-3.3-4.6-4.1-7.5c-0.5-2.2-0.2-4.4,0.9-6.6
		c1.1-2.2,2.5-3.9,4.3-5.3c1.8-1.4,3.8-2.2,5.9-2.4c2.1-0.2,4,0.4,5.6,1.9c1.6,1.5,2.8,4.1,3.5,7.7C221.2,40.1,221,45.2,220,51.6z"
		/>
	<path class="st1" d="M273.1,115.8c0.6,0.5,0.8,1.3,0.7,2.5c-0.1,1.1-0.4,2.2-1,3.3c-0.6,1.1-1.3,2.2-2.1,3.2
		c-0.8,1.1-1.8,2-2.8,2.9c-1,0.9-1.9,1.7-2.8,2.4c-1.9,1.6-4.8,3-8.7,4.1c-3.7,1.2-6.6,1.4-8.7,0.6c-1.1-0.6-2-1.3-2.7-2.2
		c-0.7-0.9-1.2-2-1.6-3.2c-0.4-1.2-0.6-2.4-0.7-3.7c-0.1-1.3-0.1-2.6-0.1-3.9c0.5-4.1,1.4-8.2,2.8-12.3c1.4-4.1,2.7-8.2,3.9-12.3
		c0.8-2.3,1.7-5.2,2.7-8.6c1-3.4,2-6.9,3-10.5c1.1-3.6,2.1-7.1,3.1-10.4c1-3.4,2-6.2,2.9-8.5c-3.5,0-6.5-0.5-9-1.4
		c-4.2-1.5-7.2-3.3-8.9-5.4c-1.7-2.1-2.5-4.2-2.5-6.2c0-2,0.6-3.8,1.7-5.2c1.1-1.4,2.3-2.2,3.5-2.4c1.2-0.1,2,0,2.5,0.3
		c0.5,0.3,0.7,0.6,0.8,1c0,0.4,0,0.9-0.2,1.4c-0.2,0.5-0.3,0.9-0.3,1.2c-0.1,0.6,0,1.2,0.1,2c0.2,0.8,0.6,1.5,1.1,2.3
		c0.6,0.7,1.3,1.4,2.2,1.9c0.9,0.6,2,0.9,3.3,1c1.3,0.1,2.6,0.1,4.1,0.1c1.4,0,2.8-0.2,4.2-0.3c0.9-2.2,1.8-4,2.6-5.5
		c0.8-1.4,1.5-2.8,2.1-4c0.6-1.2,1.3-2.6,2-4c0.7-1.4,1.5-3.2,2.3-5.5c0.2-0.6,0.5-1.2,0.9-1.9s0.9-1.3,1.4-1.9c0.5-0.6,1-1,1.5-1.2
		c0.5-0.3,1-0.3,1.5,0c0.6,0.3,1,0.8,1.3,1.6c0.3,0.8,0.6,1.6,0.8,2.6c0.2,0.9,0.3,1.9,0.3,2.8c0,1,0.1,1.8,0.1,2.4
		c0.1,1.5,0.2,2.7,0.3,3.6c0.1,0.9,0.1,1.8,0.1,2.6c0,0.8-0.2,1.8-0.4,2.8c-0.2,1-0.6,2.3-1.2,3.7c3.7-1.1,7.3-2.3,10.7-3.5
		c3.5-1.2,6.7-2.4,9.7-3.4c3-1,5.6-1.8,7.9-2.5c2.3-0.6,4-0.9,5.3-0.8c2.8,0.4,4.7,1,5.9,1.9c1.2,0.9,1.8,1.9,1.9,3
		c0.1,1.2-0.2,2.4-0.9,3.6c-0.7,1.2-1.5,2.4-2.4,3.5c-0.9,1.1-1.8,2-2.8,2.7c-0.9,0.7-1.5,1.1-1.8,1.1c-0.7,0.1-1.2-0.2-1.5-0.8
		c-0.2-0.6-0.4-1.3-0.5-2.1c-0.1-0.7-0.2-1.5-0.4-2.1c-0.2-0.7-0.6-1-1.2-1c-0.5,0-1.6,0.3-3.5,1c-1.8,0.7-4.1,1.5-6.9,2.5
		c-2.8,1-5.9,2-9.3,3.1c-3.5,1.1-7,2.1-10.7,3c-0.3,0.7-0.7,2-1.2,3.7c-0.6,1.7-1.1,3.6-1.7,5.7c-0.6,2.1-1.2,4.2-1.9,6.5
		c-0.6,2.3-1.2,4.3-1.8,6.2c-0.6,1.9-1,3.5-1.4,4.8c-0.4,1.3-0.6,2-0.7,2.2l-4.7,14.1c-0.7,2.4-1.5,4.8-2.3,7.1
		c-0.8,2.4-1.6,4.7-2.4,7.1c-0.5,1.5-1,3-1.7,4.4c-0.6,1.5-1.1,3-1.2,4.6c-0.1,0.6-0.1,1.2-0.1,1.8c0,0.6,0.1,1.1,0.2,1.7
		c0.3,0.8,0.5,1.2,0.8,1.2c0.2,0,0.8-0.3,1.6-0.9c1.2-0.8,2.3-1.8,3.2-2.8c0.9-1,1.9-2,2.9-3c0.3-0.4,0.7-0.9,1.3-1.7
		c0.6-0.7,1.2-1.4,1.9-2.1c0.6-0.6,1.3-1.2,1.9-1.5C272,115.4,272.6,115.4,273.1,115.8z"/>
	<path class="st1" d="M310.3,122.6c-0.7,0.6-1.4,1-2,1.4c-0.6,0.4-1.1,0.8-1.6,1.2c-1.3,1.3-2.7,2.4-4.4,3.2
		c-1.6,0.9-3.2,1.7-4.8,2.6c-2.7,1.5-5.1,1.5-7.3,0.1c-2.2-1.3-4-2.9-5.3-4.9c-1.3-2-1.9-4.4-1.9-7.3c-0.1-2.6,0.1-5.2,0.6-7.7
		c0.5-2.6,1.2-5.2,2.1-7.9c0.6-1.9,1.2-3.9,1.9-5.9c0.7-2,1.4-4.1,1.9-6.1c0.3-0.8,0.6-1.8,1-2.8c0.4-1,0.8-2,1.2-3
		c0.4-1,0.6-2,0.7-3c0.1-1,0-1.9-0.3-2.6c-0.3-0.9-0.8-1.2-1.6-0.9c-0.8,0.3-1.6,0.6-2.4,0.8c-0.6,0.2-1.2,0-1.5-0.4
		c-0.4-0.5-0.4-1-0.1-1.7c0.3-0.6,0.8-1.3,1.5-2.1c0.7-0.9,1.5-1.7,2.4-2.6c0.9-0.8,1.7-1.5,2.6-2.1c0.8-0.6,1.6-0.9,2.2-1
		c1.6-0.3,3-0.1,4.3,0.4c1.3,0.6,2.4,1.3,3.5,2.4c2.3,2.4,3.5,5.3,3.7,8.9c0.1,3.5-0.2,7.2-1.1,11.1c-0.9,3.9-2,7.7-3.4,11.6
		c-1.4,3.9-2.4,7.4-3.2,10.5c-0.1,0.4-0.3,0.9-0.6,1.7c-0.3,0.7-0.5,1.5-0.6,2.2c-0.1,0.7-0.1,1.4-0.1,2c0,0.6,0.3,1,0.8,1.2
		c0.6,0.3,1.3,0.1,2.2-0.5c0.9-0.6,1.8-1.3,2.7-2.1c0.9-0.8,1.7-1.7,2.5-2.6c0.8-0.9,1.4-1.6,1.7-2.1c3.4-3.8,6.2-8,8.4-12.6
		c0.4-0.8,1-2.4,1.9-4.8c0.9-2.4,1.9-5.2,3-8.3c1.2-3.1,2.3-6.5,3.5-10c1.2-3.5,2.3-6.8,3.4-10c1.1-3.1,2-5.9,2.8-8.2
		c0.8-2.3,1.4-3.8,1.8-4.6c0.2-0.6,0.4-1.2,0.8-2c0.3-0.8,0.7-1.6,1-2.4c0.4-0.8,0.8-1.5,1.4-2.1c0.6-0.6,1.2-0.9,1.9-1
		c0.2,0,0.3,0,0.5-0.1c0.1,0,0.3-0.1,0.5-0.1c2.1,0.5,3.6,1.2,4.4,2.3c0.8,1.1,1,2.8,0.6,5.2c-0.5,2.5-1.1,5.9-2,10.4
		c-0.9,4.4-1.9,9.3-3.1,14.7c-1.2,5.4-2.5,11-3.8,16.9c-1.3,5.9-2.6,11.5-3.9,16.9c-1.2,5.4-2.4,10.3-3.4,14.7
		c-1,4.4-1.8,7.8-2.4,10.2c-0.3,1-0.3,1.8-0.1,2.4c0.2,0.6,0.8,0.9,1.9,1c1.7,0,3.4,0.1,5.3,0.4c1.8,0.3,3.4,0.9,4.6,1.8
		c1.1,0.8,1.6,1.7,1.5,2.6c-0.1,0.9-0.5,1.7-1.3,2.4c-0.8,0.7-1.8,1.3-2.9,1.8c-1.2,0.5-2.2,0.8-3.1,0.9c-1.7,0.2-3.2,0.1-4.8-0.1
		c-1.5-0.3-3.1-0.4-4.8-0.3c-0.3,0-0.5,0.3-0.6,0.8c-1.3,5.1-2.4,10.1-3.5,15.1c-1,5-2,10.1-3,15.1c-0.6,3-1.5,6.3-2.5,9.7
		c-1,3.4-2.7,6.5-5.1,9.1c-1.6,1.7-3.3,2.8-5.2,3.3c-1.9,0.6-3.8,0.6-5.6,0.1c-2-0.5-3.9-1.1-5.7-1.9c-1.8-0.8-3.5-1.8-5-3.1
		c-2.6-2.1-4.4-4.8-5.4-8c-1-3.2-1.4-6.5-1-10c0.3-3.5,1.3-7,2.8-10.6c1.6-3.6,3.6-6.8,6.2-9.8c2-2.4,4.2-4.6,6.6-6.7
		c2.4-2.1,5-3.9,7.7-5.6c1.2-0.7,2.1-1.6,2.7-2.5c0.6-0.9,1-2,1.3-3.3c0.6-3.2,1.3-6.5,2.1-9.7c0.7-3.2,1.5-6.5,2.2-9.7
		c0-0.4,0-0.7,0-1C310.4,123.7,310.4,123.2,310.3,122.6z M302.8,159.2c-1.8,1-3.7,2.4-5.5,4c-1.8,1.7-3.2,3.2-4,4.6
		c-1.2,1.9-2.2,3.9-3.1,5.8c-0.9,1.9-1.4,4-1.6,6.1c-0.4,2-0.6,4-0.6,6c0,2,0.1,3.9,0.3,5.9c0.3,1.6,1.2,2.4,2.9,2.4
		c0.5,0,0.9,0,1.2,0c0.3,0,0.7,0,1.2-0.1c1.8-0.2,2.9-1.1,3.6-2.8c0.3-0.9,0.6-1.8,0.9-2.7c0.3-0.9,0.5-1.8,0.6-2.7
		c0.6-3.9,1.3-7.7,1.9-11.6c0.6-3.9,1.3-7.8,1.9-11.8c0.1-0.5,0.1-0.9,0.1-1.3S302.8,160,302.8,159.2z"/>
	<path class="st1" d="M342.1,126c0.6-1.3,1.4-2.4,2.1-3.4c0.8-1,1.3-2.1,1.6-3.5c0.6-3.5,1.1-7,1.7-10.4c0.6-3.5,1.2-6.9,1.8-10.4
		c0.5-2.8,1.1-5.5,1.8-8.3c0.7-2.8,1.2-5.5,1.2-8.3c0.1-1.3,0-2.4-0.1-3.2c-0.2-0.8-0.6-1.8-1.1-2.8c-0.2-0.6-0.5-1.3-0.8-2.1
		c-0.4-0.9-0.1-1.7,0.7-2.4c1.4-0.9,2.9-1.4,4.6-1.3c1.7,0,3.1,0.4,4.1,1.2c0.6,0.6,1.1,1.1,1.5,1.7c0.5,0.6,0.9,1.2,1.4,1.7
		c0.4,0.5,0.7,0.9,1,1.5c0.3,0.5,0.6,1.1,0.9,1.7c0.6-0.5,1.1-0.9,1.6-1.3c0.5-0.4,1-0.9,1.5-1.3c1.8-1.8,3.8-3.2,5.8-4.3
		c2-1.1,4.1-2.1,6.4-2.9c3-1.1,6-1.4,9-0.8c0.7,0.1,1.5,0.3,2.1,0.6c0.7,0.3,1.4,0.7,2,1.2c2,1.3,3.5,3,4.5,5c1,2.1,1.6,4.3,2,6.7
		c0.2,1.5,0.2,2.9,0.1,4.4c-0.1,1.4-0.2,2.9-0.4,4.5c-0.5,4-1.3,7.9-2.4,11.8c-1.2,3.9-2.6,7.8-4.2,11.7c-0.9,2.1-1.7,4.3-2.3,6.4
		c-0.6,2.2-1,4.3-1.3,6.4c-0.2,2.3-0.2,4.5-0.1,6.5c0.2,1,0.3,2,0.4,2.8c0.1,0.9,0,1.8-0.4,2.8c-0.3,0.5-1.1,0.9-2.6,1.2
		c-1.4,0.3-2.4,0.5-2.8,0.5c-3,0.2-5.5-0.4-7.3-1.7c-1.8-1.3-3.2-3.1-4.1-5.3c-0.9-2.2-1.4-4.7-1.5-7.3c-0.1-2.7,0.1-5.3,0.6-7.9
		c0.6-3.1,1.4-6.2,2.4-9.2c0.9-3,1.9-6,3-9.1c1.1-2.7,2.2-5.3,3.3-8c1.1-2.7,2.2-5.3,3.2-8c0.3-0.7,0.5-1.4,0.6-2.1
		c0.1-0.6,0.2-1.3,0.1-2.1c-0.5-0.5-0.9-0.6-1.5-0.5c-0.5,0.1-1,0.4-1.5,0.8c-2.2,1.6-4.3,3.3-6.4,5.1c-2,1.8-3.9,3.8-5.7,5.9
		c-1.3,1.6-2.2,3.2-2.8,5c-0.6,1.8-1,3.6-1.2,5.5c-0.2,1.9-0.4,3.8-0.6,5.7c-0.1,1.9-0.3,3.7-0.6,5.3c-0.2,1.7-0.4,3.3-0.8,5
		c-0.3,1.7-0.6,3.4-0.8,5.1c-0.3,1.4-0.6,2.8-1,4.3c-0.4,1.5-1,2.8-1.9,4.1c-0.8,1.2-1.8,2.3-3,3.2c-1.2,0.9-2.7,1.3-4.4,1.3
		c-1.3,0-2.5-0.1-3.7-0.3c-1.2-0.2-2.1-0.7-3-1.5c-0.9-0.7-1.8-1.6-2.6-2.7c-0.8-1.1-0.8-2.3-0.1-3.8V126z"/>
	<path class="st1" d="M465.5,114.6c-0.9,1.6-2.1,3.5-3.4,5.7c-1.3,2.2-2.6,4-3.7,5.3c-2.8,3.3-5.9,6-9.4,8c-3,1.8-6.1,2.2-9.1,1.4
		c-3-0.8-5.2-2.3-6.4-4.4c-1.2-2.1-1.9-4.7-2.2-7.6c-0.1-0.5-0.2-1-0.2-1.5c0-0.6-0.1-1.2-0.2-1.9c-0.6,0.6-1.1,1.2-1.5,1.7
		c-0.5,0.5-0.8,0.9-1.1,1.4c-0.8,1.2-1.9,2.4-3.2,3.7c-1.3,1.2-2.7,2.4-4.1,3.3c-1.5,1-3,1.8-4.6,2.4c-1.6,0.6-3,0.9-4.4,0.8
		c-2.3-0.1-4.2-0.8-5.7-2.2c-1.5-1.4-2.6-3-3.5-5c-0.9-2.2-1.5-4.7-1.6-7.4c-0.1-2.7,0-5.5,0.4-8.4c0.4-2.9,1.1-5.7,2-8.5
		c0.9-2.8,2-5.5,3.3-8c2.6-5.3,6.1-10.2,10.4-14.6c4.4-4.4,9.4-7.6,15-9.7c3.5-1.3,6.6-1.7,9.4-1.2c2.8,0.5,5.3,1.7,7.6,3.5
		c0.9,0.7,1.6,1.2,2,1.5c0.4,0.2,1.1-0.2,2.1-1.3c0.8-0.8,1.6-1.7,2.4-2.6c0.7-0.9,1.6-1.7,2.5-2.4c1.7-1.4,3.3-2,5-1.8
		c1.7,0.2,2.7,1.2,3,3c1.2,5.3,1,10.4-0.5,15.4c-1.5,5-3.8,10.2-6.7,15.4c-0.9,1.6-1.9,3.2-2.8,5c-1,1.8-1.9,3.6-2.7,5.5
		c-0.8,1.9-1.5,3.8-2.1,5.6c-0.6,1.8-0.7,3.6-0.6,5.3c0.6-0.1,1.3-0.3,1.9-0.7c0.6-0.4,1.2-0.8,1.8-1.2c0.6-0.5,1.2-1.2,2.1-2.2
		c0.8-1,1.7-2.1,2.6-3.2c0.9-1.1,1.6-2.1,2.3-3c0.6-0.9,1.1-1.4,1.2-1.6c0.6-0.8,1.1-1.2,1.7-1c0.6,0.2,1,0.6,1.4,1.4
		c0.4,0.7,0.5,1.7,0.4,2.8C466.3,112.3,466,113.5,465.5,114.6z M440,89.3c0.5-1,0.9-2,1.2-3c0.4-1,0.8-2,1.2-3
		c0.5-1.6,0.8-3.1,1-4.7c0.2-1.6-0.4-2.8-1.8-3.6c-0.6-0.5-1.4-0.6-2.4-0.6c-0.9,0.1-1.9,0.4-2.8,0.8c-1,0.5-1.9,1-2.8,1.7
		c-0.9,0.6-1.5,1.3-2,1.9c-1.8,2.1-3.2,4.3-4.5,6.6c-1.2,2.3-2.5,4.7-3.7,7.1c-3.3,7.3-6,14.5-8.2,21.7c-0.2,0.6-0.4,1.2-0.6,2
		c-0.2,0.8-0.4,1.6-0.5,2.4c-0.1,0.8,0,1.6,0.1,2.3c0.2,0.7,0.6,1.1,1.4,1.3c0.8,0.3,1.7,0,2.7-0.7c1-0.7,1.9-1.7,2.8-2.8
		c0.9-1.1,1.8-2.3,2.6-3.5c0.8-1.2,1.4-2.1,1.9-2.6c3-3.6,5.7-7.4,8-11.3C436.1,97.5,438.2,93.4,440,89.3z"/>
</g>
<path class="st3" d="M525.5,102.3l0.5,0.2c4.7,1.4,7.7,7.1,5.8,11.7c-0.9,2.6-3.1,4.3-5.5,5.4c-0.5,1.9-1.1,3.8-1.6,5.7
	c2.2,0.7,4.6,1.1,6.9,1.1c3.3,0.9,3.7,5.8,0.7,7.4c-3.3,1.8-6-2.1-9.4-2.2c-3.9,13.9-7.7,27.9-11.5,41.9c7.7,1.4,16.4,1,22.8-4.1
	c-1.9-0.5-4.1-0.6-5.9-1.5c-1.4-0.8-0.7-3.1,0.8-3.3c3.7-1.2,7.5-2.1,11.3-3.2c1.5-0.4,3-1,4.5-0.9c1.6,0.4,1.4,2.3,1.3,3.5
	c-0.5,4.6-0.7,9.2-1.2,13.7c-0.1,1.1-1,1.9-2.1,1.9c-0.3,0-0.6-0.1-0.8-0.2c-1.3-1.6-1.9-3.7-2.7-5.6c-8,7.3-18.5,12.7-29.5,12.3
	c-3-0.1-4.9,3-7.9,3.1c-2.5-1.5-2.6-5.2-5.2-6.7c-9.7-5.3-15.9-15.3-19-25.7c-1.7,1.2-3.2,2.7-5.2,3.4c-1.1-0.1-2-1-1.9-2.1
	c0-0.3,0.1-0.6,0.2-0.8c1.9-4.2,4-8.2,6-12.4c0.5-1.1,1.3-2.8,2.9-2.4c1.3,0.6,2.1,1.8,3.1,2.7c2.7,3,5.7,5.8,8.4,8.9
	c1.2,1,0.6,3.3-1.1,3.3c-2-0.1-3.9-1.1-5.8-1.7c2.9,7.6,10.1,12.4,17.5,15.2c3.8-13.9,7.6-27.9,11.5-41.9c-2.2-0.7-4.6-1.1-6.9-1.1
	c-3.3-1-3.7-5.9-0.6-7.4c3.3-1.7,6,2.1,9.3,2.2c0.5-1.9,1-3.8,1.5-5.7c-1.7-2.1-2.4-4.8-2-7.5C515.4,104.6,520.8,101.2,525.5,102.3
	 M522.8,108.8c-1.2,0.4-1.9,1.7-1.5,3c0.2,0.5,0.5,1,1,1.2c1.1,0.7,2.5,0.4,3.2-0.7c0.7-1.1,0.4-2.5-0.7-3.2
	C524.1,108.7,523.4,108.6,522.8,108.8z"/>
<path class="st4" d="M555.5,85.8l0.5-0.1c4.9-0.6,10,3.4,10.2,8.4c0.3,2.7-1.1,5.3-2.8,7.3c0.3,2,0.6,3.9,0.9,5.9
	c2.3-0.3,4.6-0.9,6.8-1.9c3.4-0.5,5.8,3.8,3.8,6.5c-2.3,3-6.4,0.6-9.5,1.9c2.3,14.4,4.5,28.8,6.8,43.2c7.7-1.9,15.5-5.9,19.2-13.2
	c-2,0.3-4,1.2-6,1.1c-1.6-0.2-1.9-2.5-0.7-3.4c2.9-2.7,6-5.1,9-7.7c1.2-0.9,2.3-2.2,3.8-2.7c1.6-0.3,2.3,1.5,2.7,2.7
	c1.5,4.4,3.2,8.7,4.6,13.1c0.4,1-0.1,2.2-1.1,2.6c-0.3,0.1-0.6,0.2-0.9,0.1c-1.9-0.9-3.2-2.6-4.8-4c-4.3,10-11.7,19.3-22,23.6
	c-2.8,1.1-3.3,4.8-6,6.1c-3-0.4-4.5-3.7-7.5-4c-11.1-0.9-21-7.5-28.2-15.7c-1.1,1.8-1.8,3.8-3.3,5.3c-1,0.4-2.2-0.1-2.6-1.1
	c-0.1-0.3-0.2-0.6-0.1-0.9c0-4.6,0.3-9.2,0.3-13.9c0-1.3,0.1-3.1,1.7-3.4c1.4,0,2.7,0.8,4,1.2c3.8,1.6,7.7,3,11.4,4.7
	c1.5,0.4,1.9,2.8,0.4,3.4c-1.9,0.7-4,0.6-6,0.8c5.8,5.8,14.5,7.2,22.4,6.7c-2.3-14.4-4.5-28.8-6.8-43.2c-2.4,0.3-4.7,0.9-6.8,1.9
	c-3.4,0.5-5.8-3.9-3.7-6.6c2.3-3,6.4-0.5,9.5-1.9c-0.3-2-0.6-3.9-1-5.9c-2.3-1.3-4.4-3.4-5-6.1C547.1,92,550.6,86.7,555.5,85.8
	 M555.6,92.8c-1,0.8-1.2,2.3-0.3,3.3c0.4,0.5,1,0.8,1.6,0.9c1.3,0.2,2.5-0.7,2.7-2c0.2-1.3-0.7-2.5-2-2.7
	C556.9,92.2,556.2,92.4,555.6,92.8L555.6,92.8z"/>
</svg>
