<svg xmlns="http://www.w3.org/2000/svg" viewBox="0 0 396.21 578.45"><title>Asset 4</title><path d="M198.1,74.34a10.21,10.21,0,0,0,10.21-10.21V10.21a10.21,10.21,0,0,0-20.42,0V64.13A10.21,10.21,0,0,0,198.1,74.34Z" style="fill:#fff"/><path d="M148,82A10.21,10.21,0,0,0,162.4,67.57L124.27,29.45a10.21,10.21,0,0,0-14.44,14.44Z" style="fill:#fff"/><path d="M241,85a10.18,10.18,0,0,0,7.22-3l38.12-38.13a10.21,10.21,0,0,0-14.44-14.44L233.82,67.57A10.21,10.21,0,0,0,241,85Z" style="fill:#fff"/><path d="M142.23,242.9a10.22,10.22,0,1,0-7.22-3A10.27,10.27,0,0,0,142.23,242.9Z" style="fill:#fff"/><path d="M390.34,540.23,334.43,514l-17.07-98.55a67.79,67.79,0,0,0,45.28-75.84l-39.9-230.3a10.22,10.22,0,0,0-11.8-8.32L198.11,120.51,85.28,101a10.2,10.2,0,0,0-11.8,8.32L33.58,339.58a67.88,67.88,0,0,0,45.28,75.84L61.78,514,5.87,540.23a10.21,10.21,0,0,0,2.6,19.3L116.79,578.3a10.23,10.23,0,0,0,1.75.15h.24a10.21,10.21,0,0,0,6.51-17.88L81.91,517.46,99,418.9l1.44,0a67.6,67.6,0,0,0,66.71-56.21l31-178.84,31,178.84a67.6,67.6,0,0,0,66.7,56.21h0l1.44,0,17.07,98.56L270.49,561a10.21,10.21,0,0,0,8.94,17.3l108.32-18.76a10.21,10.21,0,0,0,2.6-19.3ZM91.85,122.83,185.16,139l-8.37,48.28L83.49,171.11Zm.42,275A47.4,47.4,0,0,1,53.7,343.07L80,191.23l93.3,16.16L147,359.23a47.21,47.21,0,0,1-46.58,39.27A47.89,47.89,0,0,1,92.28,397.8ZM88.35,552.65l-44.47-7.7,24.93-11.71ZM249.21,359.23l-26.3-151.84,93.3-16.16,26.31,151.84a47.35,47.35,0,0,1-38.57,54.73,48,48,0,0,1-8.15.7A47.22,47.22,0,0,1,249.21,359.23Zm55.15-236.4,8.36,48.28-93.3,16.16L211.06,139Zm3.5,429.82,19.54-19.41,24.93,11.71Z" style="fill:#fff"/><path d="M250.63,215.48a10.23,10.23,0,1,0,7.22,3A10.28,10.28,0,0,0,250.63,215.48Z" style="fill:#fff"/><path d="M312.9,232.91a10.21,10.21,0,1,0-7.21,3A10.26,10.26,0,0,0,312.9,232.91Z" style="fill:#fff"/><path d="M283.12,253.07a10.23,10.23,0,1,0,7.21,3A10.29,10.29,0,0,0,283.12,253.07Z" style="fill:#fff"/><path d="M90.52,249.66a10.18,10.18,0,1,0,7.23,3A10.32,10.32,0,0,0,90.52,249.66Z" style="fill:#fff"/><path d="M139.21,283.38a10.22,10.22,0,1,0-3,7.22A10.24,10.24,0,0,0,139.21,283.38Z" style="fill:#fff"/></svg>