<svg xmlns="http://www.w3.org/2000/svg" viewBox="0 0 428.9 559"><title>Asset 2</title><path d="M265.79,139.44c-19.45,0-37.23,8.16-51.34,23.3-14.12-15.14-31.89-23.3-51.34-23.3C130,139.44,100,164,91.85,197.79c-4.26,17.56-4.74,45.42,17.15,78.41,19.69,29.69,53.24,56.87,99.71,80.81a12.51,12.51,0,0,0,11.49,0c46.46-23.94,80-51.13,99.7-80.81,21.89-33,21.41-60.86,17.15-78.42C328.85,164,298.88,139.44,265.79,139.44ZM116.22,203.7c5.5-22.7,25.22-39.17,46.89-39.17,15.83,0,30.31,9,40.77,25.44A12.55,12.55,0,0,0,225,190c10.47-16.4,24.94-25.44,40.77-25.44,21.66,0,41.37,16.47,46.88,39.17,10.19,42-26.44,89.58-98.22,128C142.67,293.28,106,245.7,116.22,203.7Z" style="fill:#fff"/><path d="M214.45,0C96.21,0,0,96.2,0,214.46,0,329.51,196.82,545.77,205.2,554.92a12.53,12.53,0,0,0,18.5,0c8.38-9.15,205.2-225.41,205.2-340.47C428.9,96.2,332.7,0,214.45,0ZM403.82,214.46c0,42.89-34,112.12-98.41,200.24-36.87,50.46-74.14,93.86-91,112.94-16.82-19.08-54.09-62.48-91-112.94C59.11,326.58,25.08,257.34,25.08,214.46,25.08,110,110,25.08,214.45,25.08S403.82,110,403.82,214.46Z" style="fill:#fff"/></svg>