<svg xmlns="http://www.w3.org/2000/svg" viewBox="0 0 799.98 800">
    <path d="M419.15,0h12.33a79.35,79.35,0,0,1,30.64,9.39c9.13-2,18.74-2.78,27.86-.31,11.63,3,23.19,7.17,32.8,14.55a72.8,72.8,0,0,1,45.55,14.06c4.32,2.8,7.69,6.84,11.9,9.75,14.27,1.17,27.26,8.22,38.3,17a63.44,63.44,0,0,1,13,14c1.76,2.8,5.47,2.78,8.24,4,15.29,5,26.79,17.15,35.74,30,2.2,2.79,3.12,6.78,6.36,8.62,15.36,7.93,28.26,21.12,34.76,37.25,1.26,3.07,2.37,6.2,3.52,9.31,14.08,7.81,22.57,22.25,28.56,36.68a62.63,62.63,0,0,1,4,16.3,72,72,0,0,1,17.19,23.52,99.55,99.55,0,0,1,6.68,33.73c7.73,9,11.78,20.55,14.22,32,2,9.26,1.44,18.81.11,28.11,1.31,4,3.81,7.62,5.24,11.65,2.9,6.84,3.65,14.33,3.79,21.69v1.32a123.64,123.64,0,0,1-3.78,27.4c1.43,6.18,3.21,12.32,3.78,18.68v13.63a81.72,81.72,0,0,1-9.32,29.66c1.77,8.17,2.64,16.72.94,25-2.79,12.53-7.28,24.87-14.87,35.33-.6,6.89-.59,13.92-2.5,20.65-3.31,14.18-11.7,26.57-21.76,36.87-.82,15.15-8.87,28.78-18.27,40.25-4,5-9.23,8.76-14.16,12.73-3,8.47-6.06,17.14-11.93,24.12a96.64,96.64,0,0,1-26.22,21.89c-3.36,1.79-4.17,5.86-6.26,8.76-7.49,11.63-18,21.64-30.61,27.43-4.11,2-8.42,3.43-12.67,5-7.8,14.11-22.28,22.58-36.72,28.56a59.66,59.66,0,0,1-16.18,3.94c-6.87,7.32-15,13.63-24.3,17.53a97.87,97.87,0,0,1-32.84,6.29c-7.07,6.06-15.72,9.92-24.63,12.4a70.94,70.94,0,0,1-35.8,1.74c-6.92,3.61-14,7.24-21.86,8.4-13.35,1.88-27,.36-40-2.84-7.36,1.65-14.72,3.78-22.35,3.86h-4.42c-12.36,0-24.42-3.66-35.26-9.43-8.89,1.92-18.23,2.75-27.14.48-11.08-2.88-22.25-6.55-31.57-13.41-2.23-2-5.36-1.24-8.08-1.48-17.58-.53-34.46-8.32-47.2-20.28-1.8-1.52-3.36-3.8-6-3.71a53.08,53.08,0,0,1-18.1-5.09c-12.68-6.31-24.79-14.93-32.39-27.12-10-3.12-20.09-7.27-27.71-14.76a95.62,95.62,0,0,1-17.88-22c-1-1.89-2.25-3.79-4.32-4.64a78,78,0,0,1-25.5-21.59c-5.63-7.34-9.13-16-12.2-24.63a57.8,57.8,0,0,1-22-23.31c-5.25-9.09-9.54-19-10.49-29.53a83.25,83.25,0,0,1-10.26-11.61c-9.77-13-13-29.72-13.62-45.68a58.1,58.1,0,0,1-7.7-11.92c-6.89-15-10-32.18-6.43-48.51C5.72,454.52,1.87,447.13.92,439a100.36,100.36,0,0,1,2.72-37.32c.68-2.17-.27-4.32-.79-6.4A75.9,75.9,0,0,1,9.48,338c-1.83-8.59-2.7-17.58-.71-26.23,2.94-12,7.13-24,14.58-34,1-4.93.19-10.22,1.4-15.2,2.47-16.35,11.46-30.95,23-42.52.34-9,3.52-17.62,8-25.37,5.6-9.89,12.72-19.22,22.18-25.7a6.36,6.36,0,0,0,3.1-4,65.65,65.65,0,0,1,9.27-19.66,94.39,94.39,0,0,1,28.48-24.54c1.78-.91,2.54-2.85,3.51-4.47C127,107.18,134,99.4,142,92.91c7.57-6.07,16.62-9.9,25.73-13a55.56,55.56,0,0,1,18.25-19c10.58-6.56,22.08-12.45,34.67-13.58,7-7.41,15.27-13.85,24.78-17.69a100,100,0,0,1,32.51-6.19c9.53-8.11,21.71-12.18,33.81-14.57,8.75-1.71,17.7-1,26.45.23,6.44-2.55,12.44-6.4,19.37-7.68,14.13-2.64,28.74-1,42.58,2.42,6.31-1.38,12.55-3.27,19-3.85M355.61,14.9c5.82,3.06,10.71,7.53,15.12,12.34,4.86,5.6,8.35,12.26,13.43,17.68,7.24,8,17,13.26,27.05,16.74,8.95,3,18.47,3.27,27.82,3.11-6-6.79-11.68-13.95-15.44-22.22A48.85,48.85,0,0,0,413.14,27c-9.46-9.51-23-13.93-36.2-14.27-7.15-.11-14.45,0-21.33,2.2m60.73-1.79c3.54,3.32,7.43,6.34,10.24,10.36C432.73,30.83,435.53,40.24,441,48a51.82,51.82,0,0,0,20.68,18.13c9.23,4.42,19,8.12,29.3,9A82.45,82.45,0,0,1,478.92,49.1,45.37,45.37,0,0,0,460.1,22.8c-12.75-8.58-28.68-11.14-43.76-9.69M476.7,19.8c3,4,6.24,7.72,8.44,12.18,5,8.75,6,19.16,10.93,28,2.93,5.79,7.46,10.52,11.69,15.37,8.87,9.21,21.08,13.95,32.92,18a94.22,94.22,0,0,1-7.91-28A48.7,48.7,0,0,0,505.9,28.07a83.78,83.78,0,0,0-29.2-8.27M296.1,27c4.26,1.89,8.62,3.66,12.42,6.39C315,37.47,320,43.31,325.45,48.49c8,7.36,17.82,13.08,28.66,14.87a93.45,93.45,0,0,0,32-.36,80.54,80.54,0,0,1-19.67-21.39A47.81,47.81,0,0,0,333,21c-12.56-1.82-25.4.8-36.89,6m-43,13.21c-5.17,1.59-9.53,4.89-14.18,7.53,4.69,1.29,9.57,2.15,13.92,4.45C261.25,56,267.57,63,275.61,67.34c12.13,7,26.73,8.19,40.39,6.56,6.07-.62,11.65-3.16,17.4-5a81.71,81.71,0,0,1-16.78-11.59c-3.62-3.07-6.46-6.93-10.07-10A44.24,44.24,0,0,0,285,37c-10.67-2.07-21.67-.12-31.86,3.23M535,36.83c2.44,4.32,5.23,8.5,6.77,13.26,3.52,8.71,3,18.37,5.7,27.29a50.6,50.6,0,0,0,10.82,20.1c4.76,5.28,9.77,10.42,15.64,14.47,4.07,2.86,8.75,4.63,13.2,6.79C583.45,109,583,98.35,583.46,88c.29-13-5.73-25.63-15.28-34.29-9.3-8.39-20.76-14.62-33.14-16.89M214.9,61.18c-11,2.63-20.53,9.07-29.28,16,4.91.66,9.91,1,14.63,2.62,7.61,2,14.22,6.5,21.38,9.63a63.27,63.27,0,0,0,32.31,4.42,98.86,98.86,0,0,0,28.63-10.21c-9.39-3.14-17.88-8.45-25.66-14.49a48.76,48.76,0,0,0-42-8m375.47,1.21c1.6,4.76,3.65,9.43,4.32,14.46,1.9,9.13,0,18.52,1.57,27.68,1.75,10,5,20,11.46,27.91,6.09,7.25,12.84,14,20.77,19.24a79.75,79.75,0,0,1,.87-26.91,49.13,49.13,0,0,0-4.59-33.7c-7.16-13.65-20.46-22.9-34.4-28.68M379.08,76.92c-10.1.38-20.31.27-30.23-1.87A94.35,94.35,0,0,1,323,85.47c-7.94,1.7-16.12,1.61-24.18,1.14-5.47,4.42-10.8,9.27-17.46,11.9-9.8,3.86-19.92,7.67-30.58,7.93-2.75,3-5.38,6.09-8.34,8.88-8.66,8.42-20.07,13.28-31.42,16.9-1.78.73-4.31.68-5.13,2.75-3.85,7.17-9.58,13.08-15.72,18.31a69,69,0,0,1-23,13.55c-2.66,8-6.53,15.77-12.53,21.82-5.89,5.85-11.57,12.09-18.7,16.47-.85.66-2.1,1.1-2.36,2.27a90.93,90.93,0,0,1-6.41,17.78c-4.47,9.31-11.69,16.88-19.15,23.85-2,1.41-1.32,4-1.63,6.08-.34,9-4.25,17.35-7.8,25.5a67.75,67.75,0,0,1-11.87,17.53c.68,8,1.28,16.15-.93,23.93A116.38,116.38,0,0,1,75,348.34a76.19,76.19,0,0,1-4.48,51.6A53.19,53.19,0,0,1,77.17,428a121.26,121.26,0,0,1-2,23.62A76.6,76.6,0,0,1,86.77,499c-.79,2.62,1.58,4.28,3.06,6a50.88,50.88,0,0,1,9.77,16c3.4,9.06,6.7,18.38,7,28.17,5.66,5.09,11.44,10.24,15.55,16.72a105.73,105.73,0,0,1,11.1,25.94c.19,1.56,1.75,2.09,2.91,2.83,7,3.79,12.48,9.62,17.62,15.54A70.52,70.52,0,0,1,167,632.86c8.15,2.78,16.1,6.75,22.22,12.94s12.95,12.39,17.2,20.29c7.13,2,14.27,4.21,20.81,7.77,9,4.79,16.35,12.09,23.23,19.52a57,57,0,0,1,15.85,2.26c11.52,4,23,9,31.91,17.66,7.58-.58,15.35-1.26,22.82.63a125.26,125.26,0,0,1,27.34,10.94c17-4.06,35.73-3.07,51.63,4.67,6.82-3.56,14.27-6.16,22-6.56,9.92-.23,20-.25,29.68,2,6.56-4.65,14.25-7.26,21.86-9.63,9.17-2.67,18.84-2.58,28.29-2A53.82,53.82,0,0,1,520,700.94c9.44-3.65,19.19-7.2,29.42-7.43,4.72-5.32,9.53-10.67,15.42-14.72,8.67-5.82,18.61-9.3,28.46-12.49A77.78,77.78,0,0,1,633,633.06c2.55-7.7,6.22-15.19,11.88-21.1,6.6-6.85,13.32-13.8,21.6-18.65,2.42-10.54,6.57-20.87,13.35-29.38,4.05-5.32,9.05-9.78,13.69-14.56a53.75,53.75,0,0,1,5.22-23.45,72.4,72.4,0,0,1,14.7-24.19c-.8-8.31-1.31-16.91,1.21-25,2.68-8.64,5.78-17.25,10.49-25-4.45-17-3.11-35.74,4.48-51.65A53.73,53.73,0,0,1,723,376c-.11-9.14-.09-18.41,2.19-27.33-4.75-7.23-7.79-15.41-10.09-23.7-2.21-8.69-2.2-17.75-1.61-26.64a54.85,54.85,0,0,1-12.19-17.65c-3.79-9.69-7.38-19.68-7.76-30.19-6.45-5.49-12.73-11.47-16.93-18.92a101.43,101.43,0,0,1-9-21.48c-.58-1.54-.71-3.59-2.5-4.24-7.81-4.2-14-10.67-19.71-17.37a68.43,68.43,0,0,1-11.12-18.71c-.6-1.26-.93-3-2.56-3.24-7.92-2.65-15.45-6.83-21.24-12.93-6.31-6.16-12.63-12.43-17.14-20.09-11.53-2.49-22.71-7.42-31.67-15.19-4.29-3.51-7.91-7.74-12-11.51-5.92-.65-12-.89-17.62-3.06-7.62-3-15.4-5.93-22.15-10.67-2.9-1.87-5.33-4.34-8.14-6.31-4.88.12-9.75.76-14.64.41-7.76-.3-15-3.29-22.23-5.91-4.55-1.65-8.74-4.05-13.06-6.18-17.1,4-35.78,3-51.76-4.65a55,55,0,0,1-21,6.49M173.47,91.3A67.64,67.64,0,0,0,138.06,115c5-.37,10-.81,14.94,0,9.52.9,18.06,5.74,27.43,7.3a58.12,58.12,0,0,0,21.52-.45c11.8-2.94,23.26-8,32.41-16.13A76.51,76.51,0,0,1,207,95.81a45.11,45.11,0,0,0-33.55-4.51m467.22,5.06c1,4.5,2.37,9,2.26,13.65.65,10.46-3.51,20.5-3,31,0,8.45,2.48,16.68,5.73,24.41,4.17,9.85,11.52,17.78,19.09,25.14.42-9.19,1.68-18.43,5-27.08a48.48,48.48,0,0,0,3.38-20.37c-.65-12.24-6.67-23.59-14.76-32.57-5.12-5.53-10.7-10.89-17.61-14.13M111.15,141.27c-5.77,5.24-11.34,11-14.73,18.09,4.46-1,8.9-2.36,13.52-2.29,7.15-.3,14.2,1.17,21.21,2.42,13.6,2.23,27.64-1.12,39.57-7.75,7.56-4.21,14-10.18,19.78-16.51a83.5,83.5,0,0,1-27.72-5.12A47.83,47.83,0,0,0,142,127.05c-11.55,1-22.26,6.6-30.82,14.22M685,137.92a55.93,55.93,0,0,1-1.87,24.13c-1.37,5-3.5,9.8-4.66,14.87a53.72,53.72,0,0,0-.3,24.93c3,11.77,7.91,23.32,16.2,32.39,1.35-9.82,5.15-19.13,10.09-27.68a44.84,44.84,0,0,0,3.86-34.78A67.45,67.45,0,0,0,685,137.92M92,175.07c-14.1,6.89-23.7,20.48-29.53,34.67,4.44-1.64,8.85-3.5,13.56-4.24,6.85-1.52,13.9-1,20.85-1.08a65.67,65.67,0,0,0,29.51-7.93c6.45-3.64,11.61-9.06,16.85-14.2,3.31-3.19,5.69-7.16,8.58-10.71a87.92,87.92,0,0,1-18.91.35c-6-.54-11.9-2.4-18-2.44A46.67,46.67,0,0,0,92,175.07m630.86,10.44a66.06,66.06,0,0,1-8,27.43A66.36,66.36,0,0,0,706,240c-1.84,14.82,3.62,29.39,10.39,42.31,3.3-9.51,8.72-18.1,14.87-26,9.16-12.27,11.58-28.88,7.07-43.43-2.8-10.28-9-19.06-15.45-27.36M90,216.6a45.54,45.54,0,0,0-35.19,14.28c-8.9,9.41-15.49,21.24-17.85,34,4.14-2.19,8-5,12.48-6.43,6.19-2.54,12.9-3.21,19.46-4.14,10.69-1.5,21.23-5.74,29.23-13.13,5.26-4.79,10.39-9.83,14.37-15.77,2.66-3.84,4.28-8.25,6.38-12.4A79.34,79.34,0,0,1,90,216.6m657.79,36.3c-3.76,8.39-10.8,14.7-15.12,22.76-6.79,11.82-8.07,26-6.61,39.34.57,6.37,3.11,12.27,5.08,18.29a85.34,85.34,0,0,1,11-16.1c3.35-4,7.56-7.15,10.94-11.12A44.11,44.11,0,0,0,763,285c2.11-10.64.18-21.63-3.15-31.81-1.59-5.25-5-9.66-7.54-14.45-1.35,4.77-2.25,9.72-4.58,14.15M65.43,267.28a47.12,47.12,0,0,0-27.68,13.51C26.58,292,21.34,307.93,19.92,323.44c4.1-3.15,8-6.59,12.76-8.81,8.11-4.73,17.77-5.51,26-10,11.85-6.26,22.07-16,27.89-28.16a148.61,148.61,0,0,0,6.84-17.17,95.42,95.42,0,0,1-28,7.94m701.09,41.35c-5.07,8-13,13.64-18.71,21.16a54.31,54.31,0,0,0-11.31,25.35c-1.36,10.21-1.57,20.67.66,30.78a79.58,79.58,0,0,1,21.27-19.54,47.91,47.91,0,0,0,20.71-34.46c1.63-12.32-1.27-24.69-6-36-2.06,4.31-3.79,8.83-6.62,12.73M55.91,319C51,320.8,45.73,321.72,41,324.16A45.86,45.86,0,0,0,20.95,343a68.66,68.66,0,0,0-7.81,40.68c3.36-3.47,6.39-7.31,10.34-10.16,7.72-6.44,17.65-9.3,25.7-15.26A50.66,50.66,0,0,0,65.87,339c4.63-9.42,8.52-19.49,9.3-30.06A69.8,69.8,0,0,1,55.91,319m721.36,47.22c-8.24,9.32-20.61,13.94-28,24.15-5.82,8.34-10.82,17.56-12.67,27.67C735,424.92,735.29,432,735.36,439c6.8-6.26,14.24-12,22.73-15.77a49.43,49.43,0,0,0,24-23,64.22,64.22,0,0,0,5-22.2c.29-7.55.38-15.28-2-22.56-2.55,3.67-4.62,7.71-7.87,10.84M42.48,376.53A50.24,50.24,0,0,0,27.95,386c-9.53,9-14.41,22.11-15,35.06-.31,7.84-.24,15.86,2.08,23.43,2.8-4,5.17-8.34,8.77-11.7,4.83-5.31,11-9,16.79-13.2,11.66-8.53,19.07-21.9,22.57-35.71,1.9-7.5,1.82-15.26,1.71-22.93-6.76,6.08-14,11.83-22.34,15.56m-.89,57.18c-12.13,8-19.82,21.93-20.8,36.36C19.58,481.75,22.59,493.29,27,504c2.07-4.24,3.74-8.71,6.54-12.54,4.83-7.62,12.22-13.06,17.82-20a55.14,55.14,0,0,0,12.3-26.35A90.62,90.62,0,0,0,63,414a81.29,81.29,0,0,1-21.43,19.7M770,431c-7.59,4.3-15.85,7.54-22.49,13.34a51.49,51.49,0,0,0-14.4,18.89c-4,8.79-7.39,18-8.27,27.71a80.88,80.88,0,0,1,25.08-11.8,46.46,46.46,0,0,0,21.79-12.3c8.87-9,13.48-21.32,15.12-33.65.93-5.59.06-11.25.12-16.87-5,5.57-10.32,11-17,14.68M68.92,466.74a80.38,80.38,0,0,1-18.53,23.65,44.82,44.82,0,0,0-13.62,26.76c-1.42,10,.38,20.11,3.47,29.6,1.58,5.25,5,9.66,7.61,14.4,1.17-4.19,1.93-8.52,3.8-12.48,4.25-10.44,13.47-17.86,17.81-28.27a68.14,68.14,0,0,0-.54-53.66M758,489.3c-7.48,2.31-15.23,4.36-21.69,9-6.77,4.78-13.37,10.14-18,17.07-5.33,7.62-8.52,16.47-11.57,25.19a98.72,98.72,0,0,1,28.33-7.92A47.35,47.35,0,0,0,765.2,516.1c9.25-11,13.75-25.4,15-39.56-6.56,5.53-13.91,10.26-22.18,12.76M83.73,517.44c-3.12,9.75-8.81,18.38-15,26.43C59.47,556.38,57.2,573.34,62.1,588,65,597.93,71,606.44,77.3,614.43c.66-5.13,1-10.36,2.78-15.26,2.54-9.2,8.67-16.88,11.36-26a60.62,60.62,0,0,0,2.11-29.28,104.38,104.38,0,0,0-9.82-26.43m666.64,24.13c-6.14,2.46-12.77,3.13-19.27,4A55.24,55.24,0,0,0,704,557c-5.88,5.09-11.55,10.55-16,17-2.81,4-4.59,8.62-6.62,13.06,9.74-3.64,20.3-4.25,30.59-3.72,13.21.38,26-5.9,34.72-15.66,8.19-9.23,14.27-20.53,16.53-32.72-4.23,2.3-8.23,5.11-12.85,6.6M105.85,565.74a75.63,75.63,0,0,1-9.56,26.6,46,46,0,0,0-6.23,20.59c-.36,10.75,3.33,21.3,8.37,30.66C102.32,651,108.86,656.43,115,662c-.21-5-.72-10.07.11-15,1-9.65,6-18.3,7.41-27.84a57.42,57.42,0,0,0-.34-20.25c-2.94-12-7.92-23.82-16.3-33.1m616.24,29c-8.3,1.57-16.79,0-25.12,1.18-7.42,1-14.81,2.9-21.44,6.48-7.3,3.68-13,9.63-18.75,15.34-3.28,3.17-5.66,7.1-8.54,10.61a78.93,78.93,0,0,1,17.58-.48c5.79.32,11.39,2,17.18,2.41a48.38,48.38,0,0,0,28.39-7c12.38-7.46,20.83-20,26.29-33.1-5.09,1.86-10.17,3.88-15.59,4.56M135.35,609.42a84.33,84.33,0,0,1-4.85,26.93A49,49,0,0,0,127,656.07c.51,12.44,6.46,24.11,14.71,33.22,5.15,5.59,10.76,11,17.67,14.32-1-4.52-2.33-9-2.19-13.69-.43-7.74,1.54-15.3,2.64-22.9,1.69-13.32-1.88-26.86-8.43-38.43-4.18-7.29-10.07-13.37-16.06-19.17m490.79,40.79c-6.28,3.92-11.41,9.31-16.6,14.52a84,84,0,0,1,27.62,5,46.46,46.46,0,0,0,24.63,2.64c10.87-1.8,20.66-7.64,28.66-15,5.18-4.91,10.17-10.23,13.22-16.77-10.3,3.22-21.25,2.57-31.67.36-15.74-3.4-32.43.67-45.86,9.23m-454.5-2a80.43,80.43,0,0,1-1,27.93A48.76,48.76,0,0,0,175.94,710c7.4,13,20.22,22.15,34,27.47-1.76-4.52-3.67-9-4.37-13.84-1.95-9.11-.28-18.48-1.59-27.65a60,60,0,0,0-9.73-26.06,98.13,98.13,0,0,0-22.57-21.66M599.8,677.69c-12.37,2.91-24.48,8-34,16.54a76.28,76.28,0,0,1,27.85,10.2,45,45,0,0,0,34.6,3.81,68.74,68.74,0,0,0,34-23.35,57.61,57.61,0,0,1-23.48-1.65c-5.37-1.4-10.43-3.8-15.86-5a55.46,55.46,0,0,0-23-.58m-386.66,3.43A80.18,80.18,0,0,1,216.68,711c-.53,13.22,5.43,26.21,15.16,35.05,9.26,8.42,20.7,14.69,33.06,17-2.09-4.26-4.87-8.18-6.37-12.71-3.74-8.88-3.12-18.78-5.91-27.91a51.36,51.36,0,0,0-10.92-20.14c-5.39-6-11.18-11.81-18.11-16-3.38-1.94-7-3.37-10.45-5.2m304.35,35.15c9.4,3.13,17.89,8.44,25.67,14.49A48.84,48.84,0,0,0,585,738.84c11.1-2.62,20.68-9.08,29.49-16.07-5.26-.61-10.57-1.12-15.59-2.89-8.79-2.5-16.2-8.26-24.9-11a63.78,63.78,0,0,0-25-3.13c-11.13,1.23-21.62,5.57-31.57,10.51m-258.08-9.69a95,95,0,0,1,7.94,27.86A47.48,47.48,0,0,0,283,764.28c11.12,9.83,25.92,14.46,40.48,15.88-5.27-6.36-9.91-13.38-12.42-21.31-2.42-7.54-4.4-15.38-8.85-22a68.28,68.28,0,0,0-15.66-17.24c-8.07-6.1-17.69-9.62-27.14-13m49.68,18.24a76.05,76.05,0,0,1,9.4,17.58c2.15,5.36,3.11,11.14,5.64,16.36a46.37,46.37,0,0,0,20.11,21,68.74,68.74,0,0,0,39.53,7.14c-3.14-3.06-6.65-5.77-9.31-9.29-7.67-8.88-10.68-20.72-18.3-29.64a50.34,50.34,0,0,0-18.55-14.49c-9-4.26-18.53-7.8-28.52-8.63M466.85,731a81.8,81.8,0,0,1,21.6,16.49c7.42,8.19,17.48,14.37,28.58,15.75,10,1.19,20.12-.51,29.66-3.49,5.35-1.5,9.83-4.92,14.6-7.62-4.77-1.16-9.65-2.13-14-4.41-8-3.55-14-10.06-21.5-14.43-11.81-7.08-26.14-8.78-39.64-7.51-6.71.51-13,3-19.26,5.22m-105.78,4.22A113.36,113.36,0,0,1,371.92,749c4.12,6.08,6.18,13.36,10.84,19.11,8.61,11.66,22.94,18,37.17,18.93,8.24.49,16.71.44,24.66-2A65.25,65.25,0,0,1,422.18,763c-7.3-11.66-19.28-19.53-32-24.26-9.33-3.32-19.32-3.81-29.13-3.45m53.1,1.72a84.74,84.74,0,0,1,13.11,12.57c4.8,5.62,8.12,12.46,13.79,17.34,10.81,10.09,26.31,13.94,40.79,12.23,7.79-.56,15.1-3.36,22.35-6-4.32-2-8.84-3.75-12.73-6.58-7.84-5-13.3-12.67-20.6-18.28a54.77,54.77,0,0,0-25.79-11.81A95.2,95.2,0,0,0,414.17,737Z"
          style="fill:#fff"/>
</svg>