<?xml version="1.0" encoding="UTF-8" ?>
<!DOCTYPE svg PUBLIC "-//W3C//DTD SVG 1.1//EN" "http://www.w3.org/Graphics/SVG/1.1/DTD/svg11.dtd">
<svg width="299pt" height="79pt" viewBox="0 0 299 79" version="1.1" xmlns="http://www.w3.org/2000/svg">
<g id="#b1e0f8ff">
<path fill="#b1e0f8" opacity="1.00" d=" M 18.86 3.68 C 19.55 -0.08 24.09 0.55 26.89 0.99 C 32.46 1.71 36.47 6.46 38.40 11.42 C 40.14 17.64 36.51 23.93 32.08 28.08 C 28.97 31.24 24.72 32.73 21.03 35.00 C 18.83 37.71 18.70 41.40 18.14 44.70 C 21.82 42.28 25.26 38.71 29.99 38.76 C 34.02 38.90 36.45 43.32 36.25 46.98 C 35.53 54.73 33.17 62.92 27.08 68.18 C 23.87 70.34 19.88 71.39 16.02 70.95 C 14.08 70.88 12.87 68.99 10.97 68.79 C 8.66 68.39 6.93 70.30 4.86 70.88 C 3.25 71.21 1.62 70.92 0.00 70.87 L 0.00 69.44 C 3.41 65.55 4.47 60.37 5.62 55.49 C 7.33 47.38 8.87 39.23 11.06 31.22 C 13.35 21.95 16.76 13.00 18.86 3.68 M 25.04 4.80 C 23.57 8.49 23.72 12.52 23.21 16.40 C 22.82 20.88 21.30 25.22 21.46 29.76 C 26.31 29.11 28.49 24.09 29.97 20.03 C 31.93 14.72 30.92 7.11 25.04 4.80 M 15.24 66.84 C 18.54 67.00 21.49 65.06 23.38 62.47 C 26.71 57.61 28.52 51.82 28.98 45.98 C 28.69 44.79 28.33 43.61 27.90 42.46 C 18.25 45.82 13.26 57.19 15.24 66.84 Z" />
<path fill="#b1e0f8" opacity="1.00" d=" M 195.87 10.74 C 197.10 7.06 198.08 2.57 201.97 0.78 C 206.64 0.08 210.25 3.90 212.63 7.40 C 215.21 10.63 214.71 15.06 213.92 18.82 C 212.05 26.98 206.51 34.92 198.17 37.31 C 196.76 37.96 194.56 38.11 194.30 40.00 C 192.37 45.89 191.57 52.05 190.67 58.15 C 190.15 59.90 190.79 61.57 191.76 63.03 C 195.47 61.87 196.58 57.30 200.26 56.32 C 201.64 55.92 202.15 57.75 201.66 58.73 C 200.28 62.09 198.28 65.22 195.80 67.86 C 192.73 71.29 187.55 71.93 183.30 70.84 C 181.01 69.33 181.14 66.30 181.43 63.91 C 183.83 45.62 189.93 28.12 195.87 10.74 M 200.07 18.96 C 198.99 22.94 197.45 26.86 197.31 31.03 C 203.24 26.45 207.68 19.55 208.26 11.97 C 208.29 9.41 206.71 7.33 204.85 5.75 C 202.21 9.72 201.41 14.48 200.07 18.96 Z" />
<path fill="#b1e0f8" opacity="1.00" d=" M 255.39 3.04 C 256.26 0.22 259.65 0.62 261.98 0.81 C 270.72 1.40 278.02 11.61 274.14 19.89 C 271.69 26.34 266.00 30.92 259.80 33.57 C 255.24 35.07 255.11 40.68 254.61 44.64 C 257.94 42.52 260.86 39.32 264.99 38.85 C 269.16 38.00 272.49 42.24 272.53 46.08 C 272.23 54.03 269.71 62.24 263.88 67.90 C 260.47 70.17 256.22 71.57 252.11 70.86 C 250.23 70.29 248.64 69.07 246.84 68.32 C 243.34 69.28 240.47 72.32 236.52 71.15 C 237.19 67.71 239.56 64.96 240.43 61.58 C 242.52 54.35 243.59 46.87 245.34 39.56 C 247.96 27.19 252.45 15.32 255.39 3.04 M 261.24 4.96 C 259.83 9.46 259.99 14.24 259.22 18.85 C 258.76 22.59 257.31 26.28 257.99 30.09 C 263.51 28.18 266.04 22.26 267.10 16.96 C 267.78 12.37 266.24 6.39 261.24 4.96 M 251.45 66.00 C 252.03 67.24 253.55 66.78 254.59 66.53 C 259.37 64.62 261.78 59.66 263.44 55.10 C 264.61 51.02 266.28 46.50 264.21 42.42 C 254.93 45.80 249.85 56.57 251.45 66.00 Z" />
<path fill="#b1e0f8" opacity="1.00" d=" M 281.77 12.85 C 282.68 9.29 284.28 5.05 288.14 3.87 C 290.26 3.46 292.70 3.03 294.63 4.32 C 297.68 6.47 298.42 10.55 298.15 14.03 C 296.44 25.82 292.57 37.16 290.54 48.89 C 290.06 52.25 287.54 55.11 284.07 55.46 C 283.60 55.00 282.66 54.08 282.19 53.63 C 280.89 47.50 280.92 41.20 280.53 34.98 C 280.50 27.60 280.19 20.11 281.77 12.85 Z" />
<path fill="#b1e0f8" opacity="1.00" d=" M 87.12 20.11 C 87.90 16.58 91.47 14.46 94.97 14.86 C 98.81 18.24 97.60 23.60 97.59 28.09 C 100.69 31.90 105.23 35.60 104.95 41.01 C 103.40 49.78 97.95 57.26 95.96 65.88 C 99.91 63.22 102.12 58.84 104.95 55.14 C 107.11 57.20 106.41 59.90 104.85 62.03 C 103.22 64.92 101.48 67.81 99.15 70.21 C 96.64 72.84 92.02 71.87 90.07 69.04 C 87.50 65.65 87.84 60.91 89.33 57.14 C 91.90 51.07 95.13 45.25 97.16 38.97 C 98.10 37.15 96.81 35.42 95.93 33.89 C 91.54 43.64 86.43 53.26 79.31 61.30 C 76.57 64.03 73.34 67.65 69.06 66.92 C 68.34 66.32 67.93 65.46 67.42 64.71 C 63.84 69.14 57.47 72.40 51.86 69.94 C 47.98 68.35 46.52 63.81 46.49 59.94 C 46.32 50.80 50.60 41.47 58.03 36.04 C 61.80 33.25 67.45 31.61 71.58 34.54 C 74.25 36.90 73.69 40.80 73.78 43.98 C 73.96 50.81 72.15 57.66 68.57 63.48 C 80.65 58.08 87.22 45.43 91.45 33.55 C 94.12 28.15 85.74 25.48 87.12 20.11 M 54.20 51.31 C 52.32 56.25 50.69 62.73 54.75 67.06 C 58.30 63.80 60.25 59.25 61.79 54.78 C 63.10 50.53 64.59 46.15 64.14 41.64 C 58.89 41.83 56.05 47.06 54.20 51.31 Z" />
<path fill="#b1e0f8" opacity="1.00" d=" M 42.44 30.01 C 41.62 25.19 44.74 18.63 50.50 19.57 C 51.71 23.36 52.14 28.68 48.51 31.31 C 46.67 32.55 43.31 32.27 42.44 30.01 Z" />
<path fill="#b1e0f8" opacity="1.00" d=" M 180.46 22.14 C 182.70 21.64 185.71 21.52 186.51 24.27 C 185.76 28.13 182.90 31.19 180.40 34.10 C 182.27 35.35 184.81 36.45 185.18 38.96 C 186.15 44.04 181.26 49.28 176.07 48.46 C 174.27 48.29 173.20 46.66 171.90 45.62 C 171.11 51.72 175.16 56.97 175.28 62.93 C 175.39 70.61 163.95 74.30 159.23 68.61 C 157.18 65.35 159.99 61.54 162.41 59.37 C 162.72 59.33 163.34 59.25 163.66 59.21 C 164.64 61.38 163.56 63.93 164.96 66.01 C 166.89 64.31 169.00 61.80 167.98 59.04 C 166.31 52.93 162.42 46.53 165.10 40.09 C 166.53 36.18 170.52 34.50 174.12 33.15 C 177.46 30.40 179.14 26.16 180.46 22.14 M 172.81 44.03 C 176.65 45.43 179.09 40.14 178.21 36.98 C 174.94 37.57 171.99 40.50 172.81 44.03 Z" />
<path fill="#b1e0f8" opacity="1.00" d=" M 210.00 32.23 C 212.78 31.05 216.60 32.18 218.02 34.96 C 220.12 38.67 219.44 43.15 218.57 47.12 C 217.05 52.63 215.64 58.16 214.21 63.69 C 218.24 62.22 221.39 58.79 222.90 54.82 C 225.45 48.28 228.07 41.77 230.35 35.13 C 230.60 33.74 231.90 33.12 232.93 32.37 C 236.19 34.36 239.27 37.79 238.16 41.92 C 236.10 50.08 231.80 57.51 229.90 65.73 C 231.68 64.98 233.49 64.28 235.35 63.73 C 235.83 68.88 230.13 73.84 225.13 71.75 C 221.88 71.05 221.16 67.47 220.54 64.73 C 217.93 66.61 215.55 69.36 212.06 69.37 C 209.14 69.57 204.62 68.64 204.49 64.99 C 205.80 56.23 209.72 48.00 210.72 39.16 C 211.13 36.79 209.74 34.57 210.00 32.23 Z" />
<path fill="#b1e0f8" opacity="1.00" d=" M 41.34 33.13 C 45.06 32.93 46.87 36.92 47.25 40.06 C 48.42 48.34 44.65 56.14 42.85 64.04 C 42.30 66.33 42.99 68.63 43.29 70.90 C 40.18 71.84 36.21 70.42 35.84 66.84 C 34.97 59.18 38.89 52.19 40.47 44.90 C 41.73 41.06 40.64 37.03 41.34 33.13 Z" />
<path fill="#b1e0f8" opacity="1.00" d=" M 133.05 38.12 C 134.81 36.42 136.69 34.85 138.93 33.82 C 142.30 36.93 141.09 42.05 139.69 45.85 C 137.81 51.56 133.13 56.23 132.86 62.45 C 135.79 60.61 137.21 57.22 140.10 55.34 C 141.63 58.79 138.95 61.72 137.36 64.53 C 137.70 65.07 138.37 66.15 138.71 66.69 C 136.67 71.08 133.92 75.41 129.81 78.11 C 128.57 79.02 125.54 79.04 125.65 76.93 C 126.43 74.42 128.62 72.65 130.10 70.54 C 128.28 70.37 126.29 70.43 124.79 69.22 C 122.69 67.77 122.77 64.90 122.29 62.66 C 119.62 65.99 115.91 69.94 111.18 68.80 C 107.12 66.55 106.79 61.26 107.42 57.16 C 108.88 48.00 114.90 38.88 124.03 35.98 C 127.23 34.68 130.47 36.25 133.05 38.12 M 119.11 48.07 C 116.99 53.08 114.37 58.15 114.23 63.69 C 115.73 63.18 117.13 62.36 118.03 61.03 C 122.41 55.57 126.27 49.58 128.41 42.87 C 129.20 41.35 127.98 38.57 125.93 39.65 C 122.33 41.01 120.85 44.96 119.11 48.07 Z" />
<path fill="#b1e0f8" opacity="1.00" d=" M 282.05 69.58 C 277.73 67.67 279.08 59.58 283.99 59.71 C 287.00 59.24 288.78 62.07 288.85 64.72 C 287.51 67.19 285.27 70.28 282.05 69.58 Z" />
</g>
</svg>
